<?xml version="1.0" encoding="UTF-8"?>
<!DOCTYPE svg PUBLIC "-//W3C//DTD SVG 1.1//EN" "http://www.w3.org/Graphics/SVG/1.1/DTD/svg11.dtd">
<svg xmlns="http://www.w3.org/2000/svg" version="1.1" width="124px" height="124px" style="shape-rendering:geometricPrecision; text-rendering:geometricPrecision; image-rendering:optimizeQuality; fill-rule:evenodd; clip-rule:evenodd" xmlns:xlink="http://www.w3.org/1999/xlink">
<g><path style="opacity:0.045" fill="#faf7f7" d="M 49.5,5.5 C 68.236,4.43419 85.9027,8.26752 102.5,17C 114.275,39.4585 116.775,63.2918 110,88.5C 108.197,94.2422 106.197,99.9089 104,105.5C 102.833,108 101,109.833 98.5,111C 80.3397,117.224 61.673,119.224 42.5,117C 33.9381,115.443 25.6048,113.11 17.5,110C 0.609742,78.953 0.276409,47.7864 16.5,16.5C 27.2712,11.7985 38.2712,8.1318 49.5,5.5 Z"/></g>
<g><path style="opacity:1" fill="#f6f1f1" d="M 66.5,10.5 C 78.1328,12.3225 89.2995,15.6559 100,20.5C 113.389,49.8515 112.555,78.6848 97.5,107C 77.5504,113.74 57.217,115.24 36.5,111.5C 31.1173,110.32 25.7839,108.82 20.5,107C 10.0177,85.9901 6.85104,63.8234 11,40.5C 12.7391,33.0267 15.5724,26.0267 19.5,19.5C 34.3857,12.523 50.0524,9.52301 66.5,10.5 Z"/></g>
<g><path style="opacity:1" fill="#fefdfd" d="M 71.5,44.5 C 61.5,44.5 51.5,44.5 41.5,44.5C 41.5,51.5 41.5,58.5 41.5,65.5C 41.5,76.1667 41.5,86.8333 41.5,97.5C 36.8333,97.5 32.1667,97.5 27.5,97.5C 27.5,89.1667 27.5,80.8333 27.5,72.5C 27.5,57.5 27.5,42.5 27.5,27.5C 42.1667,27.5 56.8333,27.5 71.5,27.5C 71.5,33.1667 71.5,38.8333 71.5,44.5 Z"/></g>
<g><path style="opacity:0.918" fill="#bb9491" d="M 69.5,8.5 C 80.7417,10.128 91.4084,13.4613 101.5,18.5C 110.487,35.0867 113.654,52.7533 111,71.5C 109.923,84.9214 106.09,97.4214 99.5,109C 79.977,116.423 59.977,118.256 39.5,114.5C 38.3065,113.728 37.3065,112.728 36.5,111.5C 57.217,115.24 77.5504,113.74 97.5,107C 112.555,78.6848 113.389,49.8515 100,20.5C 89.2995,15.6559 78.1328,12.3225 66.5,10.5C 63.3586,9.67871 60.0252,9.17871 56.5,9C 60.8206,8.50098 65.1539,8.33432 69.5,8.5 Z"/></g>
<g><path style="opacity:1" fill="#b8918b" d="M 44.5,109.5 C 43.4324,108.566 42.099,108.232 40.5,108.5C 39.3762,106.269 38.8762,103.936 39,101.5C 41.0693,100.736 43.236,100.236 45.5,100C 45,99.5 44.5,99 44,98.5C 39.1462,99.6697 34.3129,100.17 29.5,100C 31.9042,100.508 32.5709,101.675 31.5,103.5C 29.2254,100.702 26.892,100.369 24.5,102.5C 23.7383,100.219 24.7383,98.8859 27.5,98.5C 32.5,98.5 37.5,98.5 42.5,98.5C 42.5,87.5 42.5,76.5 42.5,65.5C 42.5,58.8333 42.5,52.1667 42.5,45.5C 52.3478,45.8271 62.0144,45.4938 71.5,44.5C 71.5,38.8333 71.5,33.1667 71.5,27.5C 56.8333,27.5 42.1667,27.5 27.5,27.5C 27.5,42.5 27.5,57.5 27.5,72.5C 26.6909,74.2922 26.1909,76.2922 26,78.5C 21.4112,80.3323 21.5779,81.6656 26.5,82.5C 26.7989,84.604 26.4656,86.604 25.5,88.5C 24.8076,87.9747 24.3076,87.3081 24,86.5C 23.6924,87.3081 23.1924,87.9747 22.5,88.5C 21.5,87.8333 20.5,87.1667 19.5,86.5C 18.8076,87.0253 18.3076,87.6919 18,88.5C 17.0138,86.2222 16.1805,83.8889 15.5,81.5C 16.1667,80.8333 16.8333,80.1667 17.5,79.5C 16.0673,77.1912 16.734,75.6912 19.5,75C 18.3826,73.1079 16.7159,72.2746 14.5,72.5C 14.7863,70.7231 15.4529,69.0564 16.5,67.5C 14.8671,65.6128 15.2004,64.1128 17.5,63C 21.5024,63.0322 21.5024,63.6989 17.5,65C 18.9047,66.2692 20.5714,66.7692 22.5,66.5C 22.33,65.1779 22.6634,64.0113 23.5,63C 22.09,62.6322 21.09,61.7989 20.5,60.5C 22.781,58.6056 23.9476,56.2723 24,53.5C 23.3333,54.1667 22.6667,54.8333 22,55.5C 22.0187,53.8925 22.1854,52.2259 22.5,50.5C 18.0615,50.8827 17.3948,52.716 20.5,56C 20.3552,56.772 20.0219,57.4387 19.5,58C 16.4439,59.8923 14.4439,59.3923 13.5,56.5C 14.325,55.6143 15.325,55.281 16.5,55.5C 16.5,54.5 16.5,53.5 16.5,52.5C 15.0413,52.5674 13.7079,52.2341 12.5,51.5C 13.624,41.3383 16.4573,31.6717 21,22.5C 36.2896,14.973 52.4563,12.1397 69.5,14C 79.0743,15.8113 88.4077,18.3113 97.5,21.5C 109.548,48.8342 109.381,76.1675 97,103.5C 80.123,110.406 62.623,112.406 44.5,109.5 Z"/></g>
<g><path style="opacity:1" fill="#fdfcfc" d="M 76.5,27.5 C 80.8333,27.5 85.1667,27.5 89.5,27.5C 89.5,37.8333 89.5,48.1667 89.5,58.5C 75.1667,58.5 60.8333,58.5 46.5,58.5C 46.5,57.5 46.5,56.5 46.5,55.5C 56.5,55.5 66.5,55.5 76.5,55.5C 76.5,46.1667 76.5,36.8333 76.5,27.5 Z"/></g>
<g><path style="opacity:1" fill="#d5b4b4" d="M 71.5,44.5 C 62.0144,45.4938 52.3478,45.8271 42.5,45.5C 42.5,52.1667 42.5,58.8333 42.5,65.5C 42.1667,65.5 41.8333,65.5 41.5,65.5C 41.5,58.5 41.5,51.5 41.5,44.5C 51.5,44.5 61.5,44.5 71.5,44.5 Z"/></g>
<g><path style="opacity:1" fill="#bc9a96" d="M 69.5,8.5 C 65.1539,8.33432 60.8206,8.50098 56.5,9C 60.0252,9.17871 63.3586,9.67871 66.5,10.5C 50.0524,9.52301 34.3857,12.523 19.5,19.5C 15.5724,26.0267 12.7391,33.0267 11,40.5C 6.85104,63.8234 10.0177,85.9901 20.5,107C 25.7839,108.82 31.1173,110.32 36.5,111.5C 37.3065,112.728 38.3065,113.728 39.5,114.5C 32.4571,112.881 25.4571,111.047 18.5,109C 3.93945,80.3764 2.77279,51.2097 15,21.5C 15.4807,19.522 16.6473,18.1887 18.5,17.5C 34.8059,9.49379 51.8059,6.49379 69.5,8.5 Z"/></g>
<g><path style="opacity:1" fill="#fefefe" d="M 90.5,65.5 C 90.5,75.8333 90.5,86.1667 90.5,96.5C 86.1667,96.5 81.8333,96.5 77.5,96.5C 77.8269,86.985 77.4936,77.6517 76.5,68.5C 66.9917,67.8334 57.325,67.1667 47.5,66.5C 61.8179,65.5007 76.1512,65.1674 90.5,65.5 Z"/></g>
<g><path style="opacity:1" fill="#ded3cc" d="M 90.5,65.5 C 76.1512,65.1674 61.8179,65.5007 47.5,66.5C 57.325,67.1667 66.9917,67.8334 76.5,68.5C 66.5,68.5 56.5,68.5 46.5,68.5C 46.5,67.1667 46.5,65.8333 46.5,64.5C 61.3428,64.1707 76.0095,64.504 90.5,65.5 Z"/></g>
<g><path style="opacity:1" fill="#fcfafa" d="M 56.5,74.5 C 66.3366,73.5108 71.17,77.8441 71,87.5C 64.8609,97.7566 58.1942,98.0899 51,88.5C 49.3488,82.3602 51.1822,77.6936 56.5,74.5 Z"/></g>
<g><path style="opacity:1" fill="#f2e3e2" d="M 76.5,68.5 C 77.4936,77.6517 77.8269,86.985 77.5,96.5C 81.8333,96.5 86.1667,96.5 90.5,96.5C 86.03,97.4861 81.3633,97.8195 76.5,97.5C 76.5,87.8333 76.5,78.1667 76.5,68.5 Z"/></g>
<g><path style="opacity:1" fill="#b5908d" d="M 27.5,72.5 C 27.5,80.8333 27.5,89.1667 27.5,97.5C 27.5,97.8333 27.5,98.1667 27.5,98.5C 24.7383,98.8859 23.7383,100.219 24.5,102.5C 26.892,100.369 29.2254,100.702 31.5,103.5C 32.5709,101.675 31.9042,100.508 29.5,100C 34.3129,100.17 39.1462,99.6697 44,98.5C 44.5,99 45,99.5 45.5,100C 43.236,100.236 41.0693,100.736 39,101.5C 38.8762,103.936 39.3762,106.269 40.5,108.5C 42.099,108.232 43.4324,108.566 44.5,109.5C 36.6233,108.657 29.1233,106.657 22,103.5C 14.0559,87.0536 10.8893,69.7202 12.5,51.5C 13.7079,52.2341 15.0413,52.5674 16.5,52.5C 16.5,53.5 16.5,54.5 16.5,55.5C 15.325,55.281 14.325,55.6143 13.5,56.5C 14.4439,59.3923 16.4439,59.8923 19.5,58C 20.0219,57.4387 20.3552,56.772 20.5,56C 17.3948,52.716 18.0615,50.8827 22.5,50.5C 22.1854,52.2259 22.0187,53.8925 22,55.5C 22.6667,54.8333 23.3333,54.1667 24,53.5C 23.9476,56.2723 22.781,58.6056 20.5,60.5C 21.09,61.7989 22.09,62.6322 23.5,63C 22.6634,64.0113 22.33,65.1779 22.5,66.5C 20.5714,66.7692 18.9047,66.2692 17.5,65C 21.5024,63.6989 21.5024,63.0322 17.5,63C 15.2004,64.1128 14.8671,65.6128 16.5,67.5C 15.4529,69.0564 14.7863,70.7231 14.5,72.5C 16.7159,72.2746 18.3826,73.1079 19.5,75C 16.734,75.6912 16.0673,77.1912 17.5,79.5C 16.8333,80.1667 16.1667,80.8333 15.5,81.5C 16.1805,83.8889 17.0138,86.2222 18,88.5C 18.3076,87.6919 18.8076,87.0253 19.5,86.5C 20.5,87.1667 21.5,87.8333 22.5,88.5C 23.1924,87.9747 23.6924,87.3081 24,86.5C 24.3076,87.3081 24.8076,87.9747 25.5,88.5C 26.4656,86.604 26.7989,84.604 26.5,82.5C 21.5779,81.6656 21.4112,80.3323 26,78.5C 26.1909,76.2922 26.6909,74.2922 27.5,72.5 Z"/></g>
<g><path style="opacity:1" fill="#dfc8c9" d="M 41.5,65.5 C 41.8333,65.5 42.1667,65.5 42.5,65.5C 42.5,76.5 42.5,87.5 42.5,98.5C 37.5,98.5 32.5,98.5 27.5,98.5C 27.5,98.1667 27.5,97.8333 27.5,97.5C 32.1667,97.5 36.8333,97.5 41.5,97.5C 41.5,86.8333 41.5,76.1667 41.5,65.5 Z"/></g>
</svg>
