<svg id="svg" version="1.1" xmlns="http://www.w3.org/2000/svg" xmlns:xlink="http://www.w3.org/1999/xlink" width="400" height="400" viewBox="0, 0, 400,400"><g id="svgg"><path id="path0" d="M97.680 30.528 C 97.416 31.259,97.200 32.124,97.200 32.450 C 97.200 33.247,94.874 35.448,93.474 35.975 C 92.707 36.265,79.530 36.400,52.174 36.400 L 12.000 36.400 12.000 78.600 L 12.000 120.800 78.600 120.800 L 145.200 120.800 145.200 78.600 L 145.200 36.400 130.700 36.398 C 121.993 36.396,115.608 36.231,114.718 35.984 C 112.921 35.485,110.800 33.080,110.800 31.542 C 110.800 29.186,110.840 29.200,104.238 29.200 L 98.161 29.200 97.680 30.528 M102.432 49.296 C 104.563 50.343,107.200 52.717,107.200 53.589 C 107.200 53.815,107.351 54.000,107.536 54.000 C 108.803 54.000,109.000 57.361,109.000 79.028 L 109.000 100.656 108.013 102.575 C 106.760 105.012,105.011 106.760,102.575 108.013 L 100.656 109.000 66.588 109.000 C 42.353 109.000,32.244 108.871,31.561 108.554 C 28.836 107.287,28.358 107.018,27.707 106.385 C 26.523 105.234,25.600 104.012,25.600 103.595 C 25.600 103.378,25.420 103.200,25.200 103.200 C 24.980 103.200,24.800 102.750,24.800 102.200 C 24.800 101.650,24.620 101.200,24.400 101.200 C 24.138 101.200,24.000 93.475,24.000 78.824 C 24.000 64.337,24.141 56.360,24.400 56.200 C 24.620 56.064,24.800 55.603,24.800 55.176 C 24.800 54.749,24.980 54.400,25.200 54.400 C 25.420 54.400,25.600 54.116,25.600 53.769 C 25.600 52.886,28.603 50.095,30.348 49.355 C 33.199 48.147,35.393 48.075,67.600 48.137 L 100.200 48.200 102.432 49.296 M130.659 49.241 C 132.846 50.585,133.795 52.891,133.332 55.742 C 133.097 57.193,131.307 59.600,130.464 59.600 C 130.209 59.600,130.000 59.780,130.000 60.000 C 130.000 60.879,124.669 60.459,123.545 59.491 C 117.327 54.143,123.698 44.963,130.659 49.241 M36.400 78.600 L 36.400 96.800 66.600 96.800 L 96.800 96.800 96.800 78.600 L 96.800 60.400 66.600 60.400 L 36.400 60.400 36.400 78.600 M68.859 72.967 C 74.033 75.129,73.915 82.388,68.674 84.373 C 66.575 85.169,53.219 84.923,51.594 84.059 C 47.201 81.725,47.320 75.440,51.800 73.201 C 53.859 72.171,66.539 71.998,68.859 72.967 M129.705 72.900 C 134.022 75.313,134.695 80.316,131.115 83.380 C 126.089 87.682,118.580 81.920,121.571 76.057 C 123.178 72.908,127.038 71.409,129.705 72.900 M133.785 182.500 C 133.680 182.775,133.641 212.700,133.697 249.000 L 133.800 315.000 139.500 315.111 L 145.200 315.222 145.200 248.611 L 145.200 182.000 139.587 182.000 C 135.465 182.000,133.924 182.133,133.785 182.500 M352.000 195.755 C 352.000 211.255,351.936 211.652,349.116 213.660 C 346.512 215.514,340.400 214.196,340.400 211.780 C 340.400 211.461,340.220 211.200,340.000 211.200 C 339.741 211.200,339.600 206.133,339.600 196.800 L 339.600 182.400 261.000 182.400 L 182.400 182.400 182.400 248.535 L 182.400 314.671 195.300 314.935 C 211.500 315.266,338.110 315.286,338.967 314.957 C 339.539 314.738,339.600 310.695,339.600 273.295 L 339.600 231.876 340.597 230.569 C 343.560 226.684,348.981 227.252,351.243 231.684 C 351.971 233.112,352.000 234.727,352.000 274.245 L 352.000 315.321 359.700 315.062 C 366.652 314.829,368.941 314.520,371.800 313.431 C 373.015 312.968,376.174 311.438,376.400 311.203 C 376.510 311.089,377.302 310.472,378.159 309.832 C 382.995 306.224,385.890 301.405,387.429 294.400 C 388.266 290.590,388.279 206.701,387.443 202.800 C 384.458 188.865,376.161 182.685,359.700 182.136 L 352.000 181.879 352.000 195.755 M36.400 248.376 C 36.400 298.028,36.515 314.424,36.864 314.640 C 37.120 314.798,56.110 315.013,79.064 315.119 L 120.800 315.312 120.800 248.856 L 120.800 182.400 78.600 182.400 L 36.400 182.400 36.400 248.376 M57.037 194.421 C 59.658 195.893,60.400 197.189,60.400 200.295 C 60.398 206.567,52.515 208.582,48.910 203.231 C 45.463 198.116,51.659 191.400,57.037 194.421 M104.600 194.000 C 104.736 194.220,105.127 194.400,105.470 194.400 C 106.459 194.400,108.682 197.118,108.927 198.626 C 110.148 206.154,100.737 209.298,97.250 202.526 C 95.873 199.852,98.020 194.400,100.451 194.400 C 100.837 194.400,101.264 194.220,101.400 194.000 C 101.536 193.780,102.256 193.600,103.000 193.600 C 103.744 193.600,104.464 193.780,104.600 194.000 M323.888 194.443 C 328.159 196.822,328.909 200.702,325.800 204.335 C 323.944 206.504,327.251 206.400,260.306 206.400 L 198.309 206.400 196.804 205.554 C 193.192 203.524,192.555 198.156,195.600 195.400 C 197.576 193.612,195.053 193.680,260.288 193.639 L 322.376 193.600 323.888 194.443 M323.474 218.427 C 329.016 220.526,328.923 227.867,323.324 230.206 C 321.583 230.933,198.648 231.124,198.200 230.400 C 198.064 230.180,197.635 230.000,197.246 230.000 C 196.410 230.000,195.148 228.704,194.247 226.920 C 192.572 223.605,194.370 219.457,198.000 218.261 C 199.297 217.834,322.338 217.996,323.474 218.427 M322.681 242.450 C 325.133 243.436,325.612 243.780,326.587 245.252 C 328.518 248.171,327.445 252.281,324.314 253.952 L 322.724 254.800 260.342 254.800 C 190.658 254.800,196.490 255.061,194.616 251.863 C 192.612 248.444,194.518 242.849,197.700 242.809 C 198.085 242.804,198.400 242.620,198.400 242.400 C 198.400 241.802,321.193 241.852,322.681 242.450 M322.508 266.658 C 328.384 267.629,329.317 275.887,323.859 278.610 C 322.567 279.255,197.600 279.539,197.600 278.898 C 197.600 278.731,197.093 278.371,196.474 278.097 C 192.225 276.216,193.234 267.872,197.854 266.685 C 198.976 266.396,320.766 266.370,322.508 266.658 M58.300 292.256 C 59.015 292.797,59.600 293.502,59.600 293.820 C 59.600 294.139,59.780 294.400,60.000 294.400 C 60.926 294.400,60.443 299.268,59.379 300.663 C 55.510 305.735,48.000 303.322,48.000 297.006 C 48.000 294.835,49.569 292.000,50.771 292.000 C 51.007 292.000,51.200 291.832,51.200 291.627 C 51.200 290.442,56.530 290.914,58.300 292.256 M106.695 292.266 C 110.064 294.782,109.807 300.171,106.211 302.393 C 102.178 304.886,96.906 301.956,96.829 297.180 C 96.798 295.247,98.466 292.000,99.489 292.000 C 99.770 292.000,100.000 291.831,100.000 291.625 C 100.000 290.475,104.928 290.947,106.695 292.266 M322.508 291.058 C 328.144 291.990,329.400 299.957,324.332 302.625 C 323.188 303.227,199.037 303.547,197.365 302.953 C 192.251 301.134,192.780 292.090,198.059 291.088 C 199.534 290.808,320.818 290.779,322.508 291.058 M61.200 333.353 L 61.200 339.106 78.104 339.401 C 87.402 339.563,95.367 339.627,95.804 339.543 C 96.550 339.400,96.607 339.016,96.711 333.495 L 96.821 327.600 79.011 327.600 L 61.200 327.600 61.200 333.353 M221.600 333.335 L 221.600 339.071 234.500 339.335 C 241.595 339.480,259.865 339.599,275.100 339.599 L 302.800 339.600 302.800 333.600 L 302.800 327.600 262.200 327.600 L 221.600 327.600 221.600 333.335 " stroke="none" fill="#77b0ed" fill-rule="evenodd"></path><path id="path1" d="M96.896 78.497 L 96.800 96.795 66.500 96.900 L 36.200 97.005 66.513 97.103 C 90.466 97.180,96.865 97.095,97.017 96.700 C 97.122 96.425,97.160 88.100,97.100 78.200 L 96.992 60.200 96.896 78.497 M158.000 72.600 L 158.000 84.400 163.600 84.400 L 169.200 84.400 169.200 72.600 L 169.200 60.800 163.600 60.800 L 158.000 60.800 158.000 72.600 M65.688 133.935 C 65.304 134.180,65.204 135.605,65.288 139.631 L 65.400 145.000 87.000 145.000 L 108.600 145.000 108.600 139.400 L 108.600 133.800 87.400 133.704 C 75.740 133.651,65.970 133.755,65.688 133.935 M83.467 158.267 C 83.320 158.413,83.200 160.933,83.200 163.867 L 83.200 169.200 86.800 169.200 L 90.400 169.200 90.400 163.600 L 90.400 158.000 87.067 158.000 C 85.233 158.000,83.613 158.120,83.467 158.267 M223.200 163.598 L 223.200 169.200 257.011 169.200 L 290.823 169.200 290.711 163.700 L 290.600 158.200 256.900 158.098 L 223.200 157.995 223.200 163.598 M139.384 181.494 C 143.191 181.582,145.078 181.779,145.314 182.112 C 145.564 182.463,145.615 182.432,145.498 182.000 C 145.362 181.503,144.344 181.397,139.567 181.382 L 133.800 181.364 139.384 181.494 M363.700 181.876 C 364.085 181.976,364.715 181.976,365.100 181.876 C 365.485 181.775,365.170 181.693,364.400 181.693 C 363.630 181.693,363.315 181.775,363.700 181.876 M132.995 248.600 C 132.995 285.120,133.042 300.119,133.100 281.932 C 133.158 263.744,133.158 233.864,133.100 215.532 C 133.042 197.199,132.995 212.080,132.995 248.600 M12.000 206.000 L 12.000 218.000 18.000 218.000 L 24.000 218.000 24.000 206.000 L 24.000 194.000 18.000 194.000 L 12.000 194.000 12.000 206.000 M158.000 248.400 L 158.000 302.800 163.600 302.800 L 169.200 302.800 169.200 248.400 L 169.200 194.000 163.600 194.000 L 158.000 194.000 158.000 248.400 M388.101 205.000 C 388.105 205.880,388.187 206.193,388.283 205.695 C 388.379 205.198,388.375 204.478,388.275 204.095 C 388.175 203.713,388.096 204.120,388.101 205.000 M388.109 292.000 C 388.109 292.990,388.187 293.395,388.282 292.900 C 388.378 292.405,388.378 291.595,388.282 291.100 C 388.187 290.605,388.109 291.010,388.109 292.000 M380.181 308.500 L 378.600 310.200 380.300 308.619 C 381.881 307.148,382.184 306.800,381.881 306.800 C 381.816 306.800,381.051 307.565,380.181 308.500 M64.478 327.498 C 66.831 327.569,70.791 327.569,73.278 327.499 C 75.765 327.429,73.840 327.371,69.000 327.370 C 64.160 327.370,62.125 327.428,64.478 327.498 M96.720 333.415 L 96.839 339.592 79.019 339.702 L 61.200 339.812 79.100 339.806 L 97.000 339.800 97.111 333.831 C 97.172 330.548,97.082 327.722,96.911 327.550 C 96.740 327.378,96.654 330.017,96.720 333.415 M225.278 327.498 C 227.631 327.569,231.591 327.569,234.078 327.499 C 236.565 327.429,234.640 327.371,229.800 327.370 C 224.960 327.370,222.925 327.428,225.278 327.498 M241.931 339.900 C 253.222 339.959,271.582 339.959,282.731 339.900 C 293.879 339.841,284.640 339.793,262.200 339.793 C 239.760 339.793,230.639 339.841,241.931 339.900 M52.800 357.791 L 52.800 363.582 103.900 363.691 C 154.189 363.798,155.021 363.813,156.335 364.600 C 157.889 365.532,159.600 368.358,159.600 369.995 C 159.600 370.768,159.852 370.800,166.000 370.800 L 172.400 370.800 172.400 369.394 C 172.400 367.705,173.735 365.536,175.394 364.531 C 176.550 363.830,179.983 363.796,258.100 363.694 L 339.600 363.589 339.600 357.794 L 339.600 352.000 196.200 352.000 L 52.800 352.000 52.800 357.791 " stroke="none" fill="#74747c" fill-rule="evenodd"></path><path id="path2" d="M6.800 24.400 C 6.800 24.620,6.440 24.800,6.000 24.800 C 5.560 24.800,5.200 24.980,5.200 25.200 C 5.200 25.420,4.957 25.600,4.659 25.600 C 4.123 25.600,2.536 27.006,1.000 28.843 C 0.001 30.039,-0.295 127.168,0.700 127.500 C 0.975 127.592,1.200 127.940,1.200 128.273 C 1.200 129.005,4.707 132.400,5.464 132.400 C 5.759 132.400,6.000 132.580,6.000 132.800 C 6.000 133.020,6.529 133.200,7.176 133.200 C 7.823 133.200,8.464 133.380,8.600 133.600 C 8.757 133.854,13.737 134.000,22.224 134.000 L 35.600 134.000 35.600 143.800 C 35.600 150.067,35.744 153.600,36.000 153.600 C 36.220 153.600,36.400 153.939,36.400 154.353 C 36.400 155.293,38.710 157.600,39.652 157.600 C 40.038 157.600,40.464 157.780,40.600 158.000 C 40.748 158.240,43.404 158.400,47.224 158.400 L 53.600 158.400 53.600 163.800 L 53.600 169.200 43.000 169.200 C 36.200 169.200,32.400 169.343,32.400 169.600 C 32.400 169.820,31.860 170.000,31.200 170.000 C 30.540 170.000,30.000 170.180,30.000 170.400 C 30.000 170.620,29.761 170.800,29.470 170.800 C 29.178 170.800,28.643 171.115,28.279 171.500 C 25.751 174.178,24.800 175.571,24.800 176.595 C 24.800 176.928,24.620 177.200,24.400 177.200 C 24.180 177.200,24.000 178.190,24.000 179.400 L 24.000 181.600 13.595 181.600 C 3.029 181.600,2.429 181.674,0.815 183.171 C 0.279 183.669,0.186 186.547,0.090 205.708 L -0.020 227.674 1.639 229.237 L 3.299 230.800 13.649 230.800 L 24.000 230.800 24.000 275.376 C 24.000 304.663,24.137 320.038,24.400 320.200 C 24.620 320.336,24.800 320.776,24.800 321.178 C 24.800 322.003,28.381 326.000,29.120 326.000 C 29.384 326.000,29.600 326.180,29.600 326.400 C 29.600 326.620,30.050 326.800,30.600 326.800 C 31.150 326.800,31.600 326.980,31.600 327.200 C 31.600 327.454,34.600 327.600,39.800 327.600 L 48.000 327.600 48.000 333.200 L 48.000 338.800 38.400 338.800 C 32.267 338.800,28.800 338.944,28.800 339.200 C 28.800 339.420,28.329 339.600,27.754 339.600 C 27.059 339.600,26.254 340.096,25.354 341.078 L 24.000 342.556 24.000 357.878 C 24.000 366.305,24.137 373.200,24.305 373.200 C 24.473 373.200,24.788 373.605,25.005 374.100 C 25.222 374.595,25.805 375.058,26.300 375.128 C 26.795 375.198,27.200 375.423,27.200 375.628 C 27.200 375.856,52.166 376.000,91.662 376.000 L 156.124 376.000 157.462 374.980 C 158.198 374.418,158.800 373.608,158.800 373.180 C 158.800 372.751,158.980 372.400,159.200 372.400 C 160.213 372.400,158.480 366.970,157.057 365.685 C 155.169 363.979,155.930 364.000,94.740 364.000 L 36.000 364.000 36.000 357.799 L 36.000 351.599 187.900 351.699 L 339.800 351.800 339.800 357.800 L 339.800 363.800 258.400 364.000 C 196.412 364.152,176.745 364.314,175.929 364.679 C 173.890 365.591,171.325 372.187,172.640 373.139 C 172.838 373.283,173.198 373.760,173.441 374.200 C 173.683 374.640,174.268 375.058,174.741 375.128 C 175.213 375.198,175.600 375.423,175.600 375.628 C 175.600 375.856,209.049 376.000,262.200 376.000 C 319.667 376.000,348.800 375.865,348.800 375.600 C 348.800 375.380,349.083 375.200,349.429 375.200 C 350.120 375.200,350.737 374.631,351.500 373.290 C 352.137 372.170,352.233 342.800,351.600 342.800 C 351.380 342.800,351.200 342.522,351.200 342.182 C 351.200 341.210,349.341 339.600,348.218 339.600 C 347.658 339.600,347.200 339.420,347.200 339.200 C 347.200 338.940,341.733 338.800,331.600 338.800 L 316.000 338.800 316.000 333.200 L 316.000 327.600 343.000 327.600 C 360.733 327.600,370.000 327.463,370.000 327.200 C 370.000 326.980,370.709 326.800,371.576 326.800 C 372.443 326.800,373.264 326.620,373.400 326.400 C 373.536 326.180,374.177 326.000,374.824 326.000 C 375.471 326.000,376.000 325.836,376.000 325.635 C 376.000 325.434,376.720 325.149,377.600 325.000 C 378.480 324.851,379.200 324.566,379.200 324.365 C 379.200 324.164,379.472 324.000,379.805 324.000 C 380.361 324.000,381.924 323.277,382.400 322.799 C 382.510 322.689,383.095 322.344,383.700 322.032 C 384.305 321.720,384.800 321.315,384.800 321.132 C 384.800 320.950,385.056 320.800,385.369 320.800 C 385.683 320.800,387.168 319.547,388.669 318.015 C 392.557 314.050,393.200 313.296,393.200 312.703 C 393.200 312.413,393.560 311.917,394.000 311.600 C 394.440 311.283,394.800 310.743,394.800 310.400 C 394.800 310.057,395.160 309.517,395.600 309.200 C 396.040 308.883,396.400 308.303,396.400 307.912 C 396.400 307.520,396.580 307.200,396.800 307.200 C 397.020 307.200,397.200 306.840,397.200 306.400 C 397.200 305.960,397.380 305.600,397.600 305.600 C 397.820 305.600,398.000 305.150,398.000 304.600 C 398.000 304.050,398.180 303.600,398.400 303.600 C 398.620 303.600,398.800 303.075,398.800 302.433 C 398.800 301.792,399.025 301.192,399.300 301.100 C 400.034 300.855,400.034 196.345,399.300 196.100 C 399.025 196.008,398.800 195.408,398.800 194.767 C 398.800 194.125,398.620 193.600,398.400 193.600 C 398.180 193.600,398.000 193.240,398.000 192.800 C 398.000 192.360,397.820 192.000,397.600 192.000 C 397.380 192.000,397.200 191.640,397.200 191.200 C 397.200 190.760,397.020 190.400,396.800 190.400 C 396.580 190.400,396.400 190.040,396.400 189.600 C 396.400 189.160,396.220 188.800,396.000 188.800 C 395.780 188.800,395.600 188.440,395.600 188.000 C 395.600 187.560,395.420 187.200,395.200 187.200 C 394.980 187.200,394.800 186.912,394.800 186.560 C 394.800 186.209,394.260 185.417,393.600 184.800 C 392.940 184.183,392.400 183.464,392.400 183.202 C 392.400 182.531,388.208 178.242,386.892 177.566 C 386.291 177.258,385.509 176.689,385.153 176.303 C 384.797 175.916,384.252 175.600,383.941 175.600 C 383.631 175.600,383.117 175.240,382.800 174.800 C 382.483 174.360,381.903 174.000,381.512 174.000 C 381.120 174.000,380.800 173.820,380.800 173.600 C 380.800 173.380,380.440 173.200,380.000 173.200 C 379.560 173.200,379.200 173.020,379.200 172.800 C 379.200 172.580,378.840 172.400,378.400 172.400 C 377.960 172.400,377.600 172.220,377.600 172.000 C 377.600 171.780,377.060 171.600,376.400 171.600 C 375.740 171.600,375.200 171.420,375.200 171.200 C 375.200 170.980,374.671 170.800,374.024 170.800 C 373.377 170.800,372.736 170.620,372.600 170.400 C 372.464 170.180,371.463 170.000,370.376 170.000 C 369.289 170.000,368.400 169.820,368.400 169.600 C 368.400 169.337,357.333 169.200,336.000 169.200 L 303.600 169.200 303.600 158.878 L 303.600 148.556 302.293 147.178 C 299.928 144.685,301.140 144.800,277.205 144.800 L 255.200 144.800 255.200 116.624 C 255.200 98.271,255.061 88.361,254.800 88.200 C 254.580 88.064,254.400 87.344,254.400 86.600 C 254.400 85.856,254.220 85.136,254.000 85.000 C 253.780 84.864,253.600 84.223,253.600 83.576 C 253.600 82.929,253.420 82.400,253.200 82.400 C 252.980 82.400,252.800 82.040,252.800 81.600 C 252.800 81.160,252.620 80.800,252.400 80.800 C 252.180 80.800,252.000 80.440,252.000 80.000 C 252.000 79.560,251.864 79.200,251.698 79.200 C 251.531 79.200,251.146 78.636,250.841 77.948 C 249.762 75.511,243.289 69.038,240.852 67.959 C 240.164 67.654,239.600 67.269,239.600 67.102 C 239.600 66.936,239.240 66.800,238.800 66.800 C 238.360 66.800,238.000 66.620,238.000 66.400 C 238.000 66.180,237.640 66.000,237.200 66.000 C 236.760 66.000,236.400 65.820,236.400 65.600 C 236.400 65.380,235.860 65.200,235.200 65.200 C 234.540 65.200,234.000 65.020,234.000 64.800 C 234.000 64.580,233.291 64.400,232.424 64.400 C 231.557 64.400,230.736 64.220,230.600 64.000 C 230.440 63.741,221.929 63.600,206.376 63.600 L 182.400 63.600 182.400 57.800 C 182.400 54.200,182.248 52.000,182.000 52.000 C 181.780 52.000,181.600 51.709,181.600 51.354 C 181.600 50.999,180.935 50.099,180.122 49.354 L 178.644 48.000 168.522 48.000 L 158.400 48.000 158.400 40.894 C 158.400 31.982,157.923 30.262,154.516 26.900 C 153.791 26.185,152.929 25.600,152.599 25.600 C 152.270 25.600,152.000 25.420,152.000 25.200 C 152.000 24.980,151.640 24.800,151.200 24.800 C 150.760 24.800,150.400 24.620,150.400 24.400 C 150.400 23.764,114.233 23.861,113.110 24.500 C 110.093 26.216,109.827 28.308,112.052 32.845 C 113.378 35.549,113.709 35.600,130.128 35.600 C 138.161 35.600,145.019 35.709,145.367 35.843 C 146.257 36.184,146.346 120.415,145.458 121.152 C 145.059 121.483,127.218 121.575,78.358 121.501 L 11.800 121.400 11.698 78.765 L 11.596 36.130 25.098 35.865 C 32.524 35.720,50.804 35.601,65.720 35.601 C 95.397 35.600,94.226 35.691,95.968 33.244 C 96.426 32.602,96.800 31.739,96.800 31.327 C 96.800 30.915,97.092 30.162,97.448 29.653 C 98.230 28.537,97.771 27.386,95.713 25.303 L 94.427 24.000 50.613 24.000 C 21.671 24.000,6.800 24.136,6.800 24.400 M32.231 49.455 C 28.601 50.578,25.776 53.577,24.863 57.277 C 24.234 59.829,24.213 98.101,24.840 100.040 C 26.076 103.866,28.077 106.188,31.333 107.576 C 33.234 108.386,33.834 108.400,66.675 108.400 L 100.084 108.400 102.142 107.371 C 104.894 105.996,106.268 104.623,107.431 102.088 L 108.400 99.976 108.400 78.584 C 108.400 53.107,108.322 52.757,102.036 49.849 C 99.570 48.708,35.809 48.349,32.231 49.455 M124.959 49.351 C 121.158 51.069,120.713 56.829,124.205 59.100 C 128.994 62.215,134.973 56.568,132.018 51.722 C 130.519 49.265,127.438 48.230,124.959 49.351 M97.200 78.557 C 97.200 95.110,97.132 97.141,96.567 97.357 C 95.415 97.799,37.210 97.634,36.374 97.186 C 35.589 96.766,35.098 61.035,35.867 60.267 C 36.013 60.120,49.873 60.000,66.667 60.000 L 97.200 60.000 97.200 78.557 M170.000 72.320 C 170.000 81.058,169.872 84.368,169.520 84.720 C 169.015 85.225,159.058 85.427,157.833 84.957 C 157.275 84.743,157.200 83.274,157.200 72.557 L 157.200 60.400 163.600 60.400 L 170.000 60.400 170.000 72.320 M125.693 73.369 C 120.803 75.015,120.284 81.296,124.845 83.623 C 130.604 86.561,135.656 78.897,130.836 74.537 C 129.497 73.326,127.302 72.827,125.693 73.369 M52.519 73.480 C 48.208 74.316,47.890 81.700,52.083 83.603 C 54.598 84.745,66.169 84.760,68.669 83.625 C 72.786 81.756,73.085 76.028,69.175 73.931 C 67.868 73.230,55.531 72.896,52.519 73.480 M228.600 77.200 C 228.736 77.420,229.180 77.600,229.586 77.600 C 230.464 77.600,233.479 79.111,234.575 80.100 C 235.002 80.485,235.505 80.800,235.694 80.800 C 236.139 80.800,238.000 82.661,238.000 83.106 C 238.000 83.295,238.315 83.798,238.700 84.225 C 239.689 85.321,241.200 88.336,241.200 89.214 C 241.200 89.620,241.380 90.064,241.600 90.200 C 241.860 90.361,242.000 99.937,242.000 117.624 L 242.000 144.800 220.061 144.800 C 196.262 144.800,196.922 144.742,194.779 147.021 L 193.800 148.063 193.681 158.632 L 193.563 169.200 185.805 169.200 C 181.065 169.200,177.951 169.356,177.800 169.600 C 177.664 169.820,177.113 170.000,176.576 170.000 C 176.039 170.000,175.600 170.180,175.600 170.400 C 175.600 170.620,175.344 170.800,175.032 170.800 C 174.292 170.800,170.800 174.292,170.800 175.032 C 170.800 175.344,170.620 175.600,170.400 175.600 C 170.180 175.600,170.000 176.039,170.000 176.576 C 170.000 177.113,169.820 177.664,169.600 177.800 C 169.380 177.936,169.200 178.847,169.200 179.824 L 169.200 181.600 163.800 181.600 L 158.400 181.600 158.400 180.494 C 158.400 179.321,157.029 175.214,156.508 174.829 C 156.338 174.703,155.954 174.125,155.655 173.544 C 155.356 172.963,154.682 172.258,154.156 171.976 C 153.630 171.695,153.200 171.315,153.200 171.132 C 153.200 170.950,152.930 170.800,152.600 170.800 C 152.270 170.800,152.000 170.620,152.000 170.400 C 152.000 170.180,151.460 170.000,150.800 170.000 C 150.140 170.000,149.600 169.820,149.600 169.600 C 149.600 169.338,141.667 169.200,126.600 169.200 L 103.600 169.200 103.600 163.800 L 103.600 158.400 110.176 158.400 C 114.129 158.400,116.851 158.240,117.000 158.000 C 117.136 157.780,117.552 157.594,117.924 157.587 C 118.820 157.571,120.800 155.803,120.800 155.019 C 120.800 154.679,120.980 154.400,121.200 154.400 C 121.456 154.400,121.600 150.733,121.600 144.200 L 121.600 134.000 135.200 134.000 C 144.000 134.000,148.800 133.859,148.800 133.600 C 148.800 133.380,149.340 133.200,150.000 133.200 C 150.660 133.200,151.200 133.020,151.200 132.800 C 151.200 132.580,151.493 132.400,151.852 132.400 C 152.637 132.400,156.800 128.163,156.800 127.364 C 156.800 127.054,156.980 126.800,157.200 126.800 C 157.420 126.800,157.600 126.271,157.600 125.624 C 157.600 124.977,157.780 124.336,158.000 124.200 C 158.254 124.043,158.400 119.063,158.400 110.576 L 158.400 97.200 168.400 97.200 C 174.800 97.200,178.400 97.056,178.400 96.800 C 178.400 96.580,178.678 96.400,179.018 96.400 C 179.818 96.400,181.600 94.618,181.600 93.818 C 181.600 93.478,181.780 93.200,182.000 93.200 C 182.254 93.200,182.400 90.200,182.400 85.000 L 182.400 76.800 205.376 76.800 C 220.263 76.800,228.440 76.941,228.600 77.200 M108.567 133.043 C 109.106 133.250,109.200 134.197,109.200 139.445 L 109.200 145.605 78.900 145.503 L 48.600 145.400 48.490 139.307 L 48.379 133.215 57.690 133.100 C 78.105 132.847,107.971 132.814,108.567 133.043 M90.957 157.833 C 91.480 159.195,91.222 169.084,90.652 169.557 C 90.263 169.880,86.689 169.981,78.352 169.906 L 66.600 169.800 66.489 164.018 C 66.427 160.839,66.467 158.004,66.576 157.718 C 66.905 156.860,90.627 156.971,90.957 157.833 M291.110 163.500 L 291.000 169.800 248.600 169.800 L 206.200 169.800 206.089 164.018 C 206.027 160.839,206.067 158.004,206.176 157.718 C 206.337 157.298,214.426 157.200,248.798 157.200 L 291.220 157.200 291.110 163.500 M121.152 181.742 C 121.483 182.141,121.575 199.982,121.501 248.842 L 121.400 315.400 78.700 315.502 L 36.000 315.604 36.000 248.668 C 36.000 211.854,36.120 181.613,36.267 181.467 C 36.843 180.890,120.671 181.163,121.152 181.742 M145.901 248.376 C 145.982 301.692,145.900 315.416,145.501 315.670 C 144.918 316.040,134.369 316.117,133.433 315.757 C 132.766 315.501,132.412 182.121,133.076 181.457 C 133.228 181.305,136.153 181.230,139.576 181.290 L 145.800 181.400 145.901 248.376 M339.905 195.916 L 340.010 210.431 341.794 212.216 C 343.948 214.369,346.193 214.661,348.598 213.100 C 351.093 211.480,351.200 210.768,351.200 195.825 C 351.200 188.477,351.309 182.181,351.443 181.833 C 351.770 180.980,363.314 180.924,367.200 181.757 C 378.023 184.075,384.367 190.030,387.944 201.228 C 388.714 203.639,388.580 293.270,387.802 296.257 C 385.069 306.749,376.785 314.027,365.800 315.587 C 361.742 316.163,352.278 316.118,351.680 315.520 C 351.313 315.153,351.200 305.513,351.200 274.570 C 351.200 252.311,351.085 233.527,350.945 232.826 C 350.210 229.149,344.857 227.521,342.000 230.104 C 339.906 231.998,340.000 229.934,340.000 274.196 L 340.000 315.602 260.700 315.501 L 181.400 315.400 181.297 248.800 C 181.201 186.488,181.238 182.168,181.875 181.699 C 182.416 181.301,198.698 181.219,261.178 181.299 L 339.800 181.400 339.905 195.916 M24.200 206.000 L 24.200 218.200 18.000 218.200 L 11.800 218.200 11.694 206.405 C 11.635 199.917,11.677 194.377,11.785 194.094 C 11.937 193.698,13.397 193.605,18.091 193.690 L 24.200 193.800 24.200 206.000 M169.800 248.400 L 169.800 303.000 163.600 303.000 L 157.400 303.000 157.299 248.624 C 157.218 205.391,157.300 194.183,157.699 193.925 C 157.974 193.746,160.810 193.645,164.000 193.700 L 169.800 193.800 169.800 248.400 M52.166 194.950 C 48.622 196.546,47.795 200.771,50.436 203.780 C 54.630 208.556,62.527 202.748,59.218 197.322 C 57.750 194.914,54.599 193.854,52.166 194.950 M101.315 194.680 C 95.427 195.820,96.937 205.600,103.000 205.600 C 109.298 205.600,110.447 195.869,104.293 194.639 C 103.054 194.391,102.791 194.395,101.315 194.680 M197.628 195.101 C 194.171 196.864,193.430 201.217,196.128 203.915 L 197.613 205.400 260.507 205.400 C 331.906 205.400,324.631 205.773,326.426 202.023 C 327.737 199.284,326.051 195.591,323.101 194.740 C 320.658 194.035,199.033 194.384,197.628 195.101 M196.968 219.554 C 193.755 221.514,193.669 226.570,196.811 228.808 C 197.908 229.589,198.773 229.600,260.883 229.600 L 323.843 229.600 325.068 228.300 C 327.970 225.220,327.452 221.185,323.921 219.359 C 321.981 218.356,198.622 218.546,196.968 219.554 M196.450 244.353 C 193.601 247.015,193.853 251.346,196.968 253.246 C 198.622 254.254,321.981 254.444,323.921 253.441 C 327.495 251.593,327.991 247.080,324.917 244.381 L 323.572 243.200 260.628 243.200 L 197.685 243.200 196.450 244.353 M197.159 268.105 C 193.156 270.772,193.988 277.258,198.448 278.150 C 200.098 278.480,321.123 278.475,322.774 278.145 C 327.494 277.201,328.333 270.484,324.033 268.066 L 322.491 267.200 260.505 267.200 L 198.518 267.200 197.159 268.105 M51.800 292.080 C 46.039 295.363,49.541 304.139,55.926 302.420 C 62.195 300.732,60.748 291.563,54.220 291.612 C 53.329 291.619,52.240 291.829,51.800 292.080 M99.564 292.769 C 96.951 294.923,96.724 298.615,99.059 300.950 C 102.593 304.484,108.400 301.972,108.400 296.909 C 108.400 292.319,103.114 289.843,99.564 292.769 M196.968 292.354 C 193.626 294.392,193.692 299.669,197.088 301.894 C 198.182 302.612,317.115 303.275,321.917 302.591 C 326.870 301.885,328.597 296.268,324.895 292.900 L 323.467 291.600 260.833 291.601 C 200.259 291.603,198.159 291.628,196.968 292.354 M169.200 317.600 C 169.200 318.480,169.380 319.200,169.600 319.200 C 169.820 319.200,170.000 319.740,170.000 320.400 C 170.000 321.060,170.180 321.600,170.400 321.600 C 170.620 321.600,170.800 321.843,170.800 322.141 C 170.800 322.438,171.328 323.203,171.974 323.841 C 173.761 325.606,174.311 326.000,174.983 326.000 C 175.322 326.000,175.600 326.180,175.600 326.400 C 175.600 326.620,175.960 326.800,176.400 326.800 C 176.840 326.800,177.200 326.980,177.200 327.200 C 177.200 327.460,182.667 327.600,192.800 327.600 L 208.400 327.600 208.400 333.200 L 208.400 338.800 159.000 338.800 L 109.600 338.800 109.600 333.200 L 109.600 327.600 130.000 327.600 C 143.333 327.600,150.400 327.461,150.400 327.200 C 150.400 326.980,150.760 326.800,151.200 326.800 C 151.640 326.800,152.000 326.620,152.000 326.400 C 152.000 326.180,152.282 326.000,152.627 326.000 C 154.047 326.000,157.600 321.436,157.600 319.611 C 157.600 319.191,157.780 318.736,158.000 318.600 C 158.220 318.464,158.400 317.823,158.400 317.176 L 158.400 316.000 163.800 316.000 L 169.200 316.000 169.200 317.600 M97.200 333.604 L 97.200 340.008 78.700 339.904 L 60.200 339.800 60.090 333.500 L 59.980 327.200 78.590 327.200 L 97.200 327.200 97.200 333.604 M303.510 333.500 L 303.400 339.800 262.200 339.800 L 221.000 339.800 220.890 333.500 L 220.780 327.200 262.200 327.200 L 303.620 327.200 303.510 333.500 " stroke="none" fill="#040404" fill-rule="evenodd"></path><path id="path3" d="M97.232 29.939 C 96.995 30.384,96.800 31.046,96.800 31.412 C 96.800 32.294,95.363 34.276,94.272 34.901 C 93.604 35.283,85.927 35.448,61.400 35.605 L 29.400 35.809 61.400 35.902 C 98.558 36.010,95.562 36.404,97.364 31.174 C 98.010 29.300,97.937 28.622,97.232 29.939 M110.834 30.720 C 110.784 32.067,111.812 33.816,113.337 34.979 L 114.676 36.000 129.938 36.000 L 145.200 36.000 145.200 78.600 L 145.200 121.200 92.465 121.200 C 63.461 121.200,33.492 121.081,25.867 120.935 L 12.004 120.671 11.899 78.235 L 11.795 35.800 11.797 78.600 L 11.800 121.400 78.358 121.501 C 127.218 121.575,145.059 121.483,145.458 121.152 C 146.346 120.415,146.257 36.184,145.367 35.843 C 145.019 35.709,138.161 35.600,130.128 35.600 C 112.571 35.600,112.638 35.617,111.174 30.803 C 110.876 29.824,110.868 29.822,110.834 30.720 M31.477 49.189 C 27.976 50.557,25.758 52.851,24.506 56.400 C 23.834 58.305,23.782 99.021,24.450 100.681 C 25.499 103.291,25.866 103.884,27.425 105.485 C 30.857 109.012,28.353 108.800,66.638 108.800 L 100.409 108.800 102.287 107.917 C 108.726 104.890,108.800 104.561,108.800 78.816 L 108.800 57.223 107.856 55.111 C 107.337 53.950,106.212 52.370,105.356 51.600 C 103.866 50.260,103.172 49.851,100.681 48.850 C 98.471 47.961,33.808 48.278,31.477 49.189 M124.318 49.056 C 121.665 50.455,120.463 54.464,121.878 57.192 C 124.839 62.899,133.564 60.543,133.095 54.163 C 132.762 49.645,128.216 47.000,124.318 49.056 M102.036 49.849 C 108.322 52.757,108.400 53.107,108.400 78.584 L 108.400 99.976 107.431 102.088 C 106.268 104.623,104.894 105.996,102.142 107.371 L 100.084 108.400 66.675 108.400 C 33.834 108.400,33.234 108.386,31.333 107.576 C 28.077 106.188,26.076 103.866,24.840 100.040 C 24.213 98.101,24.234 59.829,24.863 57.277 C 25.776 53.577,28.601 50.578,32.231 49.455 C 35.809 48.349,99.570 48.708,102.036 49.849 M130.234 49.786 C 134.681 52.699,132.658 60.000,127.405 60.000 C 123.989 60.000,121.769 57.666,121.841 54.150 C 121.926 49.972,126.716 47.481,130.234 49.786 M35.867 60.267 C 35.497 60.637,35.529 96.709,35.900 96.938 C 36.065 97.040,36.151 88.862,36.092 78.764 L 35.984 60.405 66.692 60.300 L 97.400 60.195 66.767 60.097 C 49.918 60.044,36.013 60.120,35.867 60.267 M157.200 72.557 C 157.200 83.274,157.275 84.743,157.833 84.957 C 159.058 85.427,169.015 85.225,169.520 84.720 C 169.872 84.368,170.000 81.058,170.000 72.320 L 170.000 60.400 163.600 60.400 L 157.200 60.400 157.200 72.557 M169.200 72.600 L 169.200 84.400 163.600 84.400 L 158.000 84.400 158.000 72.600 L 158.000 60.800 163.600 60.800 L 169.200 60.800 169.200 72.600 M52.714 73.128 C 52.336 73.278,55.784 73.400,60.375 73.400 C 64.966 73.400,68.515 73.268,68.261 73.106 C 67.684 72.738,53.648 72.758,52.714 73.128 M124.600 73.182 C 119.857 75.144,120.748 84.544,125.662 84.382 C 125.958 84.373,125.552 84.022,124.760 83.603 C 120.278 81.235,120.839 75.096,125.699 73.333 C 126.550 73.024,126.723 72.859,126.200 72.856 C 125.760 72.853,125.040 73.000,124.600 73.182 M128.424 73.229 C 133.613 74.740,134.347 81.342,129.586 83.681 C 128.824 84.055,128.470 84.370,128.800 84.379 C 134.563 84.549,134.331 73.648,128.557 72.991 L 127.000 72.814 128.424 73.229 M70.574 82.442 C 70.424 82.685,69.559 83.221,68.651 83.633 C 67.743 84.045,67.234 84.386,67.520 84.391 C 68.253 84.404,70.160 83.371,70.778 82.626 C 71.064 82.282,71.197 82.000,71.073 82.000 C 70.949 82.000,70.724 82.199,70.574 82.442 M51.730 97.500 C 60.051 97.560,73.551 97.560,81.730 97.500 C 89.908 97.439,83.100 97.390,66.600 97.390 C 50.100 97.390,43.408 97.439,51.730 97.500 M57.690 133.100 L 48.379 133.215 48.490 139.307 L 48.600 145.400 78.900 145.503 L 109.200 145.605 109.200 139.445 C 109.200 134.197,109.106 133.250,108.567 133.043 C 107.971 132.814,78.105 132.847,57.690 133.100 M108.600 139.400 L 108.600 145.000 87.000 145.000 L 65.400 145.000 65.288 139.631 C 65.204 135.605,65.304 134.180,65.688 133.935 C 65.970 133.755,75.740 133.651,87.400 133.704 L 108.600 133.800 108.600 139.400 M66.576 157.718 C 66.467 158.004,66.427 160.839,66.489 164.018 L 66.600 169.800 78.352 169.906 C 86.689 169.981,90.263 169.880,90.652 169.557 C 91.222 169.084,91.480 159.195,90.957 157.833 C 90.627 156.971,66.905 156.860,66.576 157.718 M206.176 157.718 C 206.067 158.004,206.027 160.839,206.089 164.018 L 206.200 169.800 248.600 169.800 L 291.000 169.800 291.110 163.500 L 291.220 157.200 248.798 157.200 C 214.426 157.200,206.337 157.298,206.176 157.718 M90.400 163.600 L 90.400 169.200 86.800 169.200 L 83.200 169.200 83.200 163.867 C 83.200 157.557,82.908 158.000,87.067 158.000 L 90.400 158.000 90.400 163.600 M290.711 163.700 L 290.823 169.200 257.011 169.200 L 223.200 169.200 223.200 163.598 L 223.200 157.995 256.900 158.098 L 290.600 158.200 290.711 163.700 M36.267 181.467 C 36.120 181.613,36.000 211.854,36.000 248.668 L 36.000 315.604 78.700 315.502 L 121.400 315.400 121.501 248.842 C 121.575 199.982,121.483 182.141,121.152 181.742 C 120.671 181.163,36.843 180.890,36.267 181.467 M145.600 248.520 L 145.800 315.800 145.901 248.821 C 145.957 211.983,145.867 181.707,145.701 181.541 C 145.536 181.375,145.490 211.516,145.600 248.520 M181.875 181.699 C 181.238 182.168,181.201 186.488,181.297 248.800 L 181.400 315.400 260.700 315.501 L 340.000 315.602 340.000 274.196 C 340.000 241.812,340.109 232.595,340.500 231.899 C 341.616 229.912,343.442 228.820,345.726 228.775 C 346.962 228.750,346.971 228.738,346.022 228.359 C 344.300 227.671,341.389 229.321,340.162 231.680 C 339.690 232.587,339.600 239.358,339.600 273.981 L 339.600 315.202 260.900 315.101 L 182.200 315.000 182.200 248.600 L 182.200 182.200 260.900 182.099 L 339.600 181.998 339.601 196.099 C 339.603 209.464,339.644 210.268,340.398 211.504 C 341.451 213.232,343.458 214.413,345.200 214.331 L 346.600 214.266 345.063 214.106 C 343.896 213.986,343.103 213.525,341.768 212.189 L 340.010 210.431 339.905 195.916 L 339.800 181.400 261.178 181.299 C 198.698 181.219,182.416 181.301,181.875 181.699 M352.600 181.451 C 355.115 181.710,367.206 181.788,366.325 181.540 C 365.816 181.397,362.250 181.291,358.400 181.304 C 354.550 181.317,351.940 181.383,352.600 181.451 M121.000 248.600 L 121.000 315.000 78.700 315.102 L 36.400 315.204 36.400 248.600 L 36.400 181.996 78.700 182.098 L 121.000 182.200 121.000 248.600 M351.380 195.600 C 351.380 203.190,351.434 206.295,351.499 202.500 C 351.565 198.705,351.565 192.495,351.499 188.700 C 351.434 184.905,351.380 188.010,351.380 195.600 M381.000 189.200 C 381.859 190.080,382.652 190.800,382.762 190.800 C 382.872 190.800,382.259 190.080,381.400 189.200 C 380.541 188.320,379.748 187.600,379.638 187.600 C 379.528 187.600,380.141 188.320,381.000 189.200 M11.785 194.094 C 11.677 194.377,11.635 199.917,11.694 206.405 L 11.800 218.200 18.000 218.200 L 24.200 218.200 24.200 206.000 L 24.200 193.800 18.091 193.690 C 13.397 193.605,11.937 193.698,11.785 194.094 M157.699 193.925 C 157.300 194.183,157.218 205.391,157.299 248.624 L 157.400 303.000 163.600 303.000 L 169.800 303.000 169.800 248.400 L 169.800 193.800 164.000 193.700 C 160.810 193.645,157.974 193.746,157.699 193.925 M24.000 206.000 L 24.000 218.000 18.000 218.000 L 12.000 218.000 12.000 206.000 L 12.000 194.000 18.000 194.000 L 24.000 194.000 24.000 206.000 M52.200 194.266 C 48.924 195.143,47.289 200.295,49.300 203.401 C 52.385 208.165,60.400 205.855,60.400 200.202 C 60.400 195.983,56.454 193.126,52.200 194.266 M101.000 194.285 C 99.940 194.540,98.112 196.292,97.385 197.751 C 94.513 203.508,102.946 208.893,107.246 204.049 C 111.409 199.357,107.209 192.791,101.000 194.285 M169.200 248.400 L 169.200 302.800 163.600 302.800 L 158.000 302.800 158.000 248.400 L 158.000 194.000 163.600 194.000 L 169.200 194.000 169.200 248.400 M197.800 194.283 C 196.680 194.554,194.400 196.815,194.400 197.655 C 194.400 198.039,194.220 198.464,194.000 198.600 C 193.780 198.736,193.600 199.366,193.600 200.000 C 193.600 200.634,193.780 201.264,194.000 201.400 C 194.220 201.536,194.400 201.961,194.400 202.345 C 194.400 203.507,196.844 205.519,198.800 205.968 C 201.503 206.587,320.362 206.554,322.554 205.934 C 327.644 204.492,329.020 198.647,325.028 195.416 L 323.526 194.200 261.063 194.145 C 226.708 194.114,198.240 194.176,197.800 194.283 M57.519 195.442 C 61.344 197.945,60.429 203.920,56.017 205.242 C 50.787 206.809,46.710 200.874,50.077 196.593 C 51.776 194.433,55.174 193.907,57.519 195.442 M104.293 194.639 C 110.447 195.869,109.298 205.600,103.000 205.600 C 95.960 205.600,95.637 195.303,102.650 194.454 C 102.897 194.425,103.637 194.507,104.293 194.639 M323.101 194.740 C 326.051 195.591,327.737 199.284,326.426 202.023 C 324.631 205.773,331.906 205.400,260.507 205.400 L 197.613 205.400 196.128 203.915 C 193.430 201.217,194.171 196.864,197.628 195.101 C 199.033 194.384,320.658 194.035,323.101 194.740 M387.844 202.200 C 388.173 203.671,388.402 203.990,388.394 202.967 C 388.391 202.545,388.205 201.930,387.982 201.600 C 387.685 201.162,387.648 201.324,387.844 202.200 M199.400 218.197 C 199.180 218.270,198.503 218.440,197.895 218.574 C 192.938 219.668,192.564 227.479,197.360 229.754 C 198.618 230.351,204.107 230.399,261.068 230.304 L 323.400 230.200 324.666 229.297 C 329.014 226.196,327.778 219.746,322.586 218.438 C 321.003 218.040,200.579 217.803,199.400 218.197 M323.921 219.359 C 327.452 221.185,327.970 225.220,325.068 228.300 L 323.843 229.600 260.883 229.600 C 198.773 229.600,197.908 229.589,196.811 228.808 C 193.669 226.570,193.755 221.514,196.968 219.554 C 198.622 218.546,321.981 218.356,323.921 219.359 M351.101 262.338 C 351.156 278.762,351.249 297.420,351.307 303.800 C 351.365 310.180,351.452 296.950,351.500 274.400 C 351.548 251.850,351.456 233.192,351.294 232.938 C 351.132 232.684,351.045 245.914,351.101 262.338 M198.114 242.677 C 195.542 243.184,193.052 247.682,194.018 250.079 C 196.123 255.307,188.991 254.800,260.388 254.800 L 322.009 254.800 323.797 253.960 C 328.162 251.908,328.625 246.327,324.666 243.503 L 323.400 242.600 261.200 242.551 C 226.990 242.525,198.601 242.581,198.114 242.677 M324.917 244.381 C 327.991 247.080,327.495 251.593,323.921 253.441 C 321.981 254.444,198.622 254.254,196.968 253.246 C 193.853 251.346,193.601 247.015,196.450 244.353 L 197.685 243.200 260.628 243.200 L 323.572 243.200 324.917 244.381 M197.400 267.184 C 195.184 268.106,192.961 272.485,193.925 274.028 C 194.186 274.447,194.400 275.028,194.400 275.320 C 194.400 276.018,196.546 278.056,197.837 278.584 C 198.534 278.869,218.555 278.937,261.405 278.800 L 323.956 278.600 325.322 277.276 C 328.617 274.082,327.808 269.093,323.713 267.348 C 322.238 266.720,198.900 266.559,197.400 267.184 M324.033 268.066 C 328.333 270.484,327.494 277.201,322.774 278.145 C 321.123 278.475,200.098 278.480,198.448 278.150 C 193.988 277.258,193.156 270.772,197.159 268.105 L 198.518 267.200 260.505 267.200 L 322.491 267.200 324.033 268.066 M51.381 291.709 C 47.504 293.654,47.453 300.059,51.296 302.402 C 56.356 305.487,62.687 299.156,59.602 294.096 C 58.050 291.550,54.027 290.382,51.381 291.709 M100.200 291.686 C 96.473 293.838,95.803 298.726,98.865 301.424 C 103.029 305.092,108.800 302.482,108.800 296.930 C 108.800 292.758,103.714 289.657,100.200 291.686 M197.000 291.680 C 192.787 294.081,192.909 300.381,197.212 302.606 C 198.903 303.481,321.567 303.507,323.659 302.633 C 328.178 300.745,328.695 295.216,324.646 292.091 L 323.492 291.200 260.646 291.212 C 214.365 291.221,197.589 291.344,197.000 291.680 M56.852 292.077 C 59.314 293.239,60.728 297.038,59.550 299.326 C 56.465 305.316,47.721 302.461,48.961 295.869 C 49.591 292.525,53.658 290.570,56.852 292.077 M106.800 293.200 C 110.778 297.178,106.979 303.848,101.566 302.391 C 95.287 300.700,96.573 291.600,103.091 291.600 C 105.018 291.600,105.338 291.738,106.800 293.200 M324.895 292.900 C 328.597 296.268,326.870 301.885,321.917 302.591 C 317.115 303.275,198.182 302.612,197.088 301.894 C 193.692 299.669,193.626 294.392,196.968 292.354 C 198.159 291.628,200.259 291.603,260.833 291.601 L 323.467 291.600 324.895 292.900 M377.281 310.972 C 375.423 312.285,375.162 312.661,376.731 311.762 C 377.463 311.343,378.250 310.775,378.480 310.500 C 379.071 309.793,378.793 309.902,377.281 310.972 M136.518 315.898 C 138.233 315.973,140.933 315.972,142.518 315.897 C 144.103 315.821,142.700 315.759,139.400 315.760 C 136.100 315.761,134.803 315.822,136.518 315.898 M354.900 315.897 C 356.605 315.972,359.395 315.972,361.100 315.897 C 362.805 315.822,361.410 315.761,358.000 315.761 C 354.590 315.761,353.195 315.822,354.900 315.897 M60.183 333.367 C 60.197 338.678,60.300 339.761,60.800 339.898 C 61.233 340.015,61.264 339.964,60.911 339.714 C 60.572 339.473,60.383 337.473,60.294 333.183 L 60.167 327.000 60.183 333.367 M220.876 333.276 C 220.834 336.728,220.935 339.637,221.100 339.739 C 221.265 339.842,221.353 338.008,221.295 335.663 C 221.100 327.798,220.952 326.953,220.876 333.276 M303.199 333.481 C 303.089 337.046,303.140 339.822,303.311 339.650 C 303.482 339.479,303.571 336.562,303.510 333.169 L 303.398 327.000 303.199 333.481 M36.000 357.799 L 36.000 364.000 94.700 363.902 L 153.400 363.803 103.100 363.700 L 52.800 363.597 52.800 357.798 L 52.800 352.000 196.200 352.000 L 339.600 352.000 339.600 357.799 L 339.600 363.598 258.900 363.700 L 178.200 363.803 259.000 363.801 L 339.800 363.800 339.800 357.800 L 339.800 351.800 187.900 351.699 L 36.000 351.599 36.000 357.799 M155.000 364.482 C 156.840 365.125,157.908 366.317,158.653 368.557 C 159.026 369.681,159.413 370.357,159.512 370.061 C 159.612 369.764,159.492 369.089,159.246 368.561 C 159.001 368.032,158.575 367.121,158.300 366.535 C 157.725 365.310,155.772 363.989,154.600 364.033 C 154.021 364.055,154.132 364.179,155.000 364.482 M175.189 364.650 C 173.798 365.513,172.396 367.761,172.418 369.094 C 172.434 370.136,172.465 370.117,172.952 368.754 C 173.752 366.515,175.038 364.966,176.482 364.504 C 177.336 364.230,177.519 364.071,177.000 364.051 C 176.560 364.035,175.745 364.304,175.189 364.650 " stroke="none" fill="#455c79" fill-rule="evenodd"></path><path id="path4" d="M112.198 34.337 C 112.634 34.852,113.353 35.459,113.796 35.686 C 114.645 36.121,114.521 35.987,112.603 34.394 C 111.448 33.435,111.434 33.433,112.198 34.337 M32.100 36.300 C 43.265 36.359,61.535 36.359,72.700 36.300 C 83.865 36.241,74.730 36.193,52.400 36.193 C 30.070 36.193,20.935 36.241,32.100 36.300 M122.900 36.299 C 127.025 36.364,133.775 36.364,137.900 36.299 C 142.025 36.234,138.650 36.181,130.400 36.181 C 122.150 36.181,118.775 36.234,122.900 36.299 M50.730 48.300 C 59.601 48.360,74.001 48.360,82.730 48.300 C 91.458 48.240,84.200 48.191,66.600 48.191 C 49.000 48.191,41.858 48.240,50.730 48.300 M131.910 50.600 C 132.337 51.260,132.787 52.070,132.911 52.400 C 133.112 52.933,133.140 52.933,133.166 52.400 C 133.183 52.070,132.732 51.260,132.165 50.600 L 131.134 49.400 131.910 50.600 M104.033 50.500 C 104.125 50.555,104.740 51.050,105.400 51.600 L 106.600 52.600 105.630 51.500 C 105.097 50.895,104.482 50.400,104.264 50.400 C 104.045 50.400,103.942 50.445,104.033 50.500 M121.067 52.667 C 120.701 53.032,120.729 55.909,121.100 56.138 C 121.265 56.240,121.400 55.441,121.400 54.362 C 121.400 53.283,121.385 52.400,121.367 52.400 C 121.348 52.400,121.213 52.520,121.067 52.667 M108.986 78.800 C 108.986 89.910,109.037 94.455,109.100 88.900 C 109.162 83.345,109.162 74.255,109.100 68.700 C 109.037 63.145,108.986 67.690,108.986 78.800 M36.184 78.600 C 36.184 88.720,36.236 92.803,36.300 87.673 C 36.363 82.542,36.363 74.262,36.300 69.273 C 36.236 64.283,36.184 68.480,36.184 78.600 M56.921 72.698 C 59.077 72.771,62.497 72.770,64.521 72.698 C 66.544 72.625,64.780 72.566,60.600 72.567 C 56.420 72.567,54.764 72.626,56.921 72.698 M125.062 72.700 C 124.960 72.865,125.922 73.000,127.200 73.000 C 128.478 73.000,129.440 72.865,129.338 72.700 C 129.236 72.535,128.274 72.400,127.200 72.400 C 126.126 72.400,125.164 72.535,125.062 72.700 M69.765 73.725 C 70.161 74.014,70.841 74.689,71.277 75.225 C 71.713 75.761,71.937 75.930,71.775 75.600 C 71.314 74.659,69.903 73.200,69.454 73.200 C 69.230 73.200,69.370 73.436,69.765 73.725 M72.200 78.598 C 72.200 79.765,72.335 80.638,72.500 80.537 C 72.885 80.301,72.880 77.545,72.494 76.938 C 72.332 76.684,72.200 77.431,72.200 78.598 M121.043 77.033 C 120.701 77.923,120.740 80.316,121.100 80.537 C 121.265 80.638,121.400 79.748,121.400 78.560 C 121.400 76.171,121.390 76.128,121.043 77.033 M56.500 84.698 C 58.645 84.770,62.155 84.770,64.300 84.698 C 66.445 84.626,64.690 84.567,60.400 84.567 C 56.110 84.567,54.355 84.626,56.500 84.698 M26.813 105.472 C 27.356 106.342,28.814 107.404,28.778 106.903 C 28.766 106.737,28.205 106.164,27.531 105.631 C 26.471 104.792,26.375 104.771,26.813 105.472 M50.530 109.100 C 59.511 109.160,74.091 109.160,82.930 109.100 C 91.768 109.040,84.420 108.991,66.600 108.991 C 48.780 108.991,41.548 109.040,50.530 109.100 M59.131 121.100 C 75.044 121.158,100.964 121.158,116.731 121.100 C 132.499 121.042,119.480 120.995,87.800 120.995 C 56.120 120.995,43.219 121.042,59.131 121.100 M133.385 182.100 C 133.280 182.375,133.241 212.480,133.297 249.000 L 133.400 315.400 139.400 315.422 L 145.400 315.445 139.600 315.222 L 133.800 315.000 133.800 248.600 L 133.800 182.200 139.600 181.983 L 145.400 181.766 139.487 181.683 C 135.063 181.621,133.527 181.726,133.385 182.100 M351.791 182.100 C 351.690 182.375,351.560 188.810,351.503 196.400 C 351.447 203.990,351.253 210.560,351.072 211.000 C 350.892 211.440,351.021 211.350,351.358 210.800 C 351.878 209.953,351.974 207.673,351.986 195.911 L 352.000 182.022 357.700 181.899 L 363.400 181.776 357.687 181.688 C 353.416 181.622,351.928 181.726,351.791 182.100 M78.699 182.299 L 120.798 182.404 120.901 248.602 L 121.004 314.800 121.002 248.500 L 121.000 182.200 78.800 182.197 L 36.600 182.195 78.699 182.299 M182.185 182.500 C 182.080 182.775,182.041 212.700,182.097 249.000 L 182.200 315.000 190.800 315.012 L 199.400 315.023 190.900 314.904 L 182.400 314.784 182.400 248.593 L 182.400 182.402 261.100 182.300 L 339.800 182.198 261.087 182.099 C 198.412 182.020,182.336 182.102,182.185 182.500 M365.800 182.401 C 367.120 182.555,368.830 182.801,369.600 182.949 C 370.706 183.161,370.622 183.091,369.200 182.615 C 368.210 182.283,366.500 182.037,365.400 182.067 L 363.400 182.122 365.800 182.401 M145.395 248.600 C 145.395 285.120,145.442 300.119,145.500 281.932 C 145.558 263.744,145.558 233.864,145.500 215.532 C 145.442 197.199,145.395 212.080,145.395 248.600 M372.400 183.897 C 372.730 184.025,373.810 184.573,374.800 185.115 C 375.790 185.656,376.420 185.914,376.200 185.687 C 375.569 185.038,372.826 183.597,372.288 183.632 C 372.007 183.650,372.054 183.762,372.400 183.897 M379.178 188.104 C 379.937 188.927,380.714 189.600,380.907 189.600 C 381.273 189.600,380.939 189.254,378.982 187.604 C 377.962 186.744,377.988 186.812,379.178 188.104 M382.523 191.700 C 383.281 192.635,384.197 193.985,384.560 194.700 C 384.924 195.415,385.311 196.000,385.421 196.000 C 386.040 196.000,382.113 190.046,381.473 190.016 C 381.293 190.007,381.766 190.765,382.523 191.700 M52.262 193.900 C 52.160 194.065,53.031 194.200,54.198 194.200 C 55.365 194.200,56.238 194.065,56.137 193.900 C 56.035 193.735,55.164 193.600,54.200 193.600 C 53.236 193.600,52.364 193.735,52.262 193.900 M101.462 193.900 C 101.360 194.065,102.052 194.200,103.000 194.200 C 103.948 194.200,104.640 194.065,104.538 193.900 C 104.436 193.735,103.744 193.600,103.000 193.600 C 102.256 193.600,101.564 193.735,101.462 193.900 M197.862 193.900 C 197.760 194.065,225.902 194.200,260.400 194.200 C 294.898 194.200,323.040 194.065,322.938 193.900 C 322.696 193.508,198.104 193.508,197.862 193.900 M49.924 195.500 C 48.382 197.153,47.993 198.153,48.067 200.274 C 48.131 202.114,48.141 202.129,48.274 200.600 C 48.504 197.957,48.755 197.279,50.047 195.807 C 51.505 194.147,51.408 193.908,49.924 195.500 M98.575 195.700 L 97.400 197.000 98.700 195.825 C 99.415 195.179,100.000 194.594,100.000 194.525 C 100.000 194.216,99.670 194.488,98.575 195.700 M195.375 195.700 L 194.200 197.000 195.500 195.825 C 196.215 195.179,196.800 194.594,196.800 194.525 C 196.800 194.216,196.470 194.488,195.375 195.700 M385.606 196.406 C 385.603 196.519,385.960 197.596,386.400 198.800 C 386.840 200.004,387.221 201.441,387.246 201.994 C 387.281 202.755,387.340 202.817,387.485 202.250 C 387.681 201.489,386.700 197.898,385.996 196.800 C 385.785 196.470,385.609 196.293,385.606 196.406 M97.600 203.325 C 97.600 203.394,98.185 203.979,98.900 204.625 L 100.200 205.800 99.025 204.500 C 97.930 203.288,97.600 203.016,97.600 203.325 M194.856 203.941 C 195.110 204.348,195.697 204.911,196.159 205.191 C 196.748 205.547,196.648 205.325,195.825 204.450 C 194.488 203.027,194.186 202.869,194.856 203.941 M325.375 204.500 L 324.200 205.800 325.500 204.625 C 326.215 203.979,326.800 203.394,326.800 203.325 C 326.800 203.016,326.470 203.288,325.375 204.500 M52.137 206.094 C 52.746 206.480,55.901 206.485,56.137 206.100 C 56.238 205.935,55.275 205.800,53.998 205.800 C 52.720 205.800,51.883 205.932,52.137 206.094 M101.338 206.094 C 101.592 206.256,102.340 206.388,103.000 206.388 C 103.660 206.388,104.408 206.256,104.662 206.094 C 104.916 205.932,104.168 205.800,103.000 205.800 C 101.832 205.800,101.084 205.932,101.338 206.094 M197.600 205.994 C 197.930 206.211,198.635 206.391,199.167 206.394 C 200.451 206.402,200.125 206.175,198.400 205.858 C 197.415 205.677,197.178 205.718,197.600 205.994 M388.193 248.400 C 388.193 271.610,388.241 281.105,388.300 269.500 C 388.359 257.895,388.359 238.905,388.300 227.300 C 388.241 215.695,388.193 225.190,388.193 248.400 M349.986 212.577 C 349.664 212.895,348.860 213.434,348.200 213.775 C 347.540 214.116,347.277 214.396,347.615 214.398 C 348.171 214.400,351.293 212.055,350.786 212.016 C 350.668 212.007,350.308 212.260,349.986 212.577 M344.900 214.676 C 345.285 214.776,345.915 214.776,346.300 214.676 C 346.685 214.575,346.370 214.493,345.600 214.493 C 344.830 214.493,344.515 214.575,344.900 214.676 M194.720 227.850 C 195.193 228.734,196.740 230.204,196.944 229.964 C 197.021 229.874,196.461 229.191,195.699 228.446 C 194.937 227.701,194.497 227.433,194.720 227.850 M348.433 228.900 C 348.525 228.955,349.140 229.450,349.800 230.000 L 351.000 231.000 350.030 229.900 C 349.497 229.295,348.882 228.800,348.664 228.800 C 348.445 228.800,348.342 228.845,348.433 228.900 M198.341 230.501 C 198.507 230.667,226.533 230.757,260.621 230.701 L 322.600 230.600 260.320 230.400 C 226.066 230.290,198.176 230.336,198.341 230.501 M351.797 274.100 L 351.800 315.400 357.203 315.511 C 360.175 315.572,363.595 315.469,364.803 315.283 C 366.232 315.063,364.379 315.010,359.502 315.129 L 352.004 315.313 351.899 274.057 L 351.794 232.800 351.797 274.100 M198.400 242.300 C 198.400 242.465,226.373 242.600,260.562 242.600 C 294.751 242.600,322.516 242.468,322.262 242.306 C 321.652 241.918,198.400 241.912,198.400 242.300 M195.421 253.234 C 195.695 253.677,198.016 254.918,198.209 254.724 C 198.284 254.650,197.635 254.200,196.768 253.725 C 195.900 253.250,195.294 253.029,195.421 253.234 M229.331 266.700 C 246.454 266.758,274.354 266.758,291.331 266.700 C 308.309 266.642,294.300 266.595,260.200 266.595 C 226.100 266.595,212.209 266.642,229.331 266.700 M194.856 276.741 C 195.110 277.148,195.697 277.711,196.159 277.991 C 196.748 278.347,196.648 278.125,195.825 277.250 C 194.488 275.827,194.186 275.669,194.856 276.741 M325.375 277.300 L 324.200 278.600 325.500 277.425 C 326.215 276.779,326.800 276.194,326.800 276.125 C 326.800 275.816,326.470 276.088,325.375 277.300 M261.200 278.800 L 199.000 279.004 261.076 279.102 C 302.135 279.167,323.236 279.065,323.400 278.800 C 323.536 278.580,323.592 278.444,323.524 278.498 C 323.456 278.552,295.410 278.688,261.200 278.800 M229.500 291.100 C 246.495 291.158,274.305 291.158,291.300 291.100 C 308.295 291.042,294.390 290.995,260.400 290.995 C 226.410 290.995,212.505 291.042,229.500 291.100 M49.797 292.540 C 48.027 294.558,47.430 297.743,48.449 299.726 C 49.036 300.869,50.845 302.800,51.329 302.800 C 51.537 302.800,51.230 302.424,50.646 301.965 C 48.174 300.021,47.604 296.119,49.440 293.711 C 50.411 292.438,50.691 291.521,49.797 292.540 M107.194 293.003 C 108.787 294.921,108.921 295.045,108.486 294.196 C 108.259 293.753,107.652 293.034,107.137 292.598 C 106.233 291.834,106.235 291.848,107.194 293.003 M386.550 297.900 C 386.405 298.505,385.858 299.855,385.336 300.900 C 384.814 301.945,384.477 302.800,384.587 302.800 C 384.697 302.800,385.214 301.945,385.736 300.900 C 386.702 298.968,387.378 296.800,387.015 296.800 C 386.905 296.800,386.696 297.295,386.550 297.900 M194.400 300.288 C 194.400 300.704,196.738 303.030,196.896 302.771 C 196.953 302.677,196.415 301.998,195.700 301.263 C 194.985 300.527,194.400 300.089,194.400 300.288 M368.600 314.400 C 368.096 314.617,368.022 314.744,368.400 314.744 C 368.730 314.744,369.360 314.589,369.800 314.400 C 370.304 314.183,370.378 314.056,370.000 314.056 C 369.670 314.056,369.040 314.211,368.600 314.400 M36.399 314.900 C 36.400 315.065,40.405 315.164,45.300 315.120 C 54.256 315.038,53.218 314.895,42.299 314.703 C 39.054 314.646,36.399 314.735,36.399 314.900 M82.323 327.499 C 85.031 327.568,89.351 327.568,91.923 327.499 C 94.495 327.429,92.280 327.372,87.000 327.373 C 81.720 327.373,79.615 327.430,82.323 327.499 M270.490 327.499 L 302.779 327.605 302.906 333.603 L 303.032 339.601 303.016 333.500 L 303.000 327.400 270.600 327.396 L 238.200 327.393 270.490 327.499 M60.400 333.600 L 60.400 339.600 69.300 339.508 L 78.200 339.417 69.700 339.300 L 61.200 339.184 61.200 333.392 C 61.200 329.797,61.048 327.600,60.800 327.600 C 60.551 327.600,60.400 329.867,60.400 333.600 M221.288 333.500 L 221.200 339.600 230.100 339.508 L 239.000 339.416 230.311 339.300 L 221.621 339.184 221.499 333.292 L 221.377 327.400 221.288 333.500 " stroke="none" fill="#7b90a5" fill-rule="evenodd"></path></g></svg>