<?xml version="1.0" encoding="UTF-8" standalone="no"?>
<!-- Created with Inkscape (http://www.inkscape.org/) -->

<svg
   version="1.1"
   id="svg1791"
   width="1220.959"
   height="910.41217"
   viewBox="0 0 1220.959 910.41221"
   sodipodi:docname="Well1b.svg"
   inkscape:version="1.2.2 (732a01da63, 2022-12-09, custom)"
   xmlns:inkscape="http://www.inkscape.org/namespaces/inkscape"
   xmlns:sodipodi="http://sodipodi.sourceforge.net/DTD/sodipodi-0.dtd"
   xmlns="http://www.w3.org/2000/svg"
   xmlns:svg="http://www.w3.org/2000/svg">
  <defs
     id="defs1795" />
  <sodipodi:namedview
     id="namedview1793"
     pagecolor="#ffffff"
     bordercolor="#000000"
     borderopacity="0.25"
     inkscape:showpageshadow="2"
     inkscape:pageopacity="0.0"
     inkscape:pagecheckerboard="0"
     inkscape:deskcolor="#d1d1d1"
     showgrid="false"
     inkscape:zoom="0.72880595"
     inkscape:cx="603.72723"
     inkscape:cy="454.16753"
     inkscape:window-width="1920"
     inkscape:window-height="1031"
     inkscape:window-x="0"
     inkscape:window-y="25"
     inkscape:window-maximized="1"
     inkscape:current-layer="layer1" />
  <g
     inkscape:groupmode="layer"
     id="layer1"
     inkscape:label="Layer 1"
     transform="translate(-53.530501,-86.823942)"
     style="fill:#666666">
    <path
       style="fill:#000000;stroke-width:1.33333"
       d="M 609.99998,995.90389 C 463.55893,987.17339 312.77881,943.17244 150,861.66577 119.18022,846.23368 92.842532,831.91601 90.999998,829.59225 89.689867,827.93995 89.330803,796.38353 89.321514,682.07847 L 89.309695,536.66665 72.589422,526.05777 c -9.19615,-5.83488 -17.314929,-11.3254 -18.041731,-12.20115 -0.859612,-1.03576 -1.186243,-49.05352 -0.934575,-137.39111 l 0.386883,-135.79885 5.642897,-11.53883 c 4.337612,-8.86973 7.41427,-13.11764 13.300751,-18.36417 C 92.856956,193.01522 168.338,162.15554 243.99999,140.82896 404.61228,95.557748 603.44658,77.548733 789.99998,91.376117 956.4187,103.71112 1105.9368,137.95536 1217.5273,189.29295 c 32.3723,14.89303 43.4902,23.69842 52.1771,41.32447 l 4.2956,8.71591 0.3908,134.66666 c 0.2149,74.06666 0.067,135.96339 -0.329,137.5483 -0.4749,1.90087 -6.6208,6.60891 -18.0575,13.83291 l -17.3377,10.95125 v 145.09274 145.09274 l -3,3.2995 c -1.65,1.81472 -15.3,9.74454 -30.3333,17.62184 -157.8358,82.70413 -307.24919,131.10536 -447.99999,145.12591 -46.82222,4.66408 -103.54262,5.94941 -147.33333,3.33871 z"
       id="path1909" />
    <path
       style="display:inline;fill:#00ffff;stroke-width:1.19222"
       d="M 570.79155,301.80246 C 501.99378,297.19254 460.32978,291.31285 404.28624,278.30497 356.04455,267.10793 296.9532,248.70173 259.49237,233.20354 c -8.32498,-3.44419 -10.75275,-6.60646 -8.0327,-10.46293 4.01465,-5.69198 78.0205,-31.10184 128.84051,-44.2373 54.33495,-14.04398 107.27578,-22.80123 168.84463,-27.92959 27.09053,-2.25651 108.4943,-1.87124 136.68375,0.64688 91.97929,8.21639 171.43217,26.1668 260.99791,58.96603 27.98744,10.24909 29.06849,10.81842 29.06849,15.30873 0,4.35418 -1.45451,5.19423 -22.8837,13.21627 -88.68158,33.19808 -175.88249,53.23321 -265.32727,60.96114 -20.1698,1.74263 -100.75698,3.21088 -116.89244,2.12969 z"
       id="path2163"
       transform="translate(53.530501,86.823942)" />
    <g
       id="layer2"
       inkscape:label="Stone"
       style="display:inline"
       transform="translate(53.530501,86.823942)">
      <path
         style="fill:#ffffff;stroke-width:1.33333"
         d="m 600.60521,161.34123 c 48.4896,-2.32782 121.3672,-1.37108 158.29558,2.07812 l 8.90082,0.83136 18.8641,-28.24931 c 10.37527,-15.53714 18.66008,-28.45336 18.41072,-28.70273 -0.24936,-0.24936 -15.74357,-1.52573 -34.43158,-2.83637 -58.51371,-4.10373 -189.98633,-3.14168 -236.20769,1.72845 l -7.56283,0.79686 18.89616,28.46769 c 18.40843,27.73292 18.9994,28.45168 22.89616,27.84744 2.2,-0.34115 16.57235,-1.22383 31.93856,-1.96151 z"
         id="path2025"
         transform="translate(-53.530501,-86.823942)" />
      <path
         style="fill:#ffffff;stroke-width:1.33333"
         d="m 425.33332,182.19838 c 29.53102,-5.64488 73.64725,-12.08557 104.36804,-15.23708 l 22.36804,-2.29464 -18.64127,-28.33333 c -15.31592,-23.27905 -19.18714,-28.33149 -21.70137,-28.32301 -5.74421,0.0194 -62.68045,6.63028 -86.2297,10.01219 -34.7873,4.9958 -100.78437,16.82035 -102.29133,18.32731 -0.18148,0.18148 15.07299,11.85844 33.89882,25.94883 31.39511,23.49798 34.61511,25.5773 38.89544,25.11682 2.56667,-0.27612 15.76667,-2.62381 29.33333,-5.21709 z"
         id="path2023"
         transform="translate(-53.530501,-86.823942)" />
      <path
         style="fill:#ffffff;stroke-width:1.33333"
         d="M 973.46207,163.82849 C 992.45792,149.80084 1008,137.9191 1008,137.42465 c 0,-0.95961 -8.83988,-2.80812 -48.00002,-10.03728 -39.39534,-7.27258 -83.76662,-13.38594 -135.33333,-18.64589 l -6.66667,-0.68002 -18.42945,28.09536 c -10.1362,15.45246 -18.2362,28.25864 -18,28.45819 0.2362,0.19954 14.22945,1.973 31.09612,3.94101 30.19184,3.52279 88.50906,12.85457 111.99999,17.92196 6.6,1.42373 12.50795,2.64863 13.12876,2.72197 0.62083,0.0733 16.67083,-11.3438 35.66667,-25.37146 z"
         id="path2021"
         transform="translate(-53.530501,-86.823942)" />
      <path
         style="fill:#ffffff;stroke-width:1.33333"
         d="m 315.00117,206.10478 c 19.24935,-4.70903 41.17674,-9.91444 48.72753,-11.56759 13.03914,-2.85473 13.6084,-3.12028 11.33333,-5.28681 C 368.79487,183.28217 308.69345,140 306.67319,140 c -3.85529,0 -52.62094,12.69756 -76.37558,19.88661 -26.1217,7.90541 -66.30073,21.6783 -66.29061,22.72364 0.008,0.83246 110.13369,31.7884 113.66083,31.94966 1.28399,0.0587 18.08399,-3.74609 37.33334,-8.45513 z"
         id="path2019"
         transform="translate(-53.530501,-86.823942)" />
      <path
         style="fill:#ffffff;stroke-width:1.33333"
         d="m 1106.8997,200.6177 c 30.3051,-8.46025 56.2502,-15.73241 57.6558,-16.16035 3.4527,-1.05125 0.3702,-2.29765 -35.8889,-14.51152 -29.3245,-9.878 -65.1836,-20.25611 -91.1323,-26.37498 l -13.775,-3.24824 -30.21301,22.21749 c -16.61714,12.21963 -32.16298,23.65988 -34.54631,25.42277 -2.38334,1.76291 -4.33334,3.55168 -4.33334,3.97506 0,0.42338 6.45,2.15252 14.33334,3.84252 20.60395,4.41698 72.40472,17.10649 76.33332,18.69916 1.8333,0.74325 4.0382,1.38938 4.8997,1.43586 0.8615,0.0465 26.3615,-6.8375 56.6667,-15.29777 z"
         id="path2017"
         transform="translate(-53.530501,-86.823942)" />
      <path
         style="fill:#ffffff;stroke-width:1.33333"
         d="m 662.66665,224.84275 c 48.81384,-0.0973 69.15537,0.74958 95,3.95524 l 6.33333,0.78558 v -25.31391 c 0,-25.14909 -0.0195,-25.3186 -3,-26.03443 -1.65,-0.39628 -17.1,-1.44436 -34.33333,-2.32905 -31.21569,-1.60251 -125.79808,-0.84829 -148,1.18017 l -10,0.91364 -0.36528,23.95518 c -0.20089,13.17534 -0.12133,24.59101 0.17694,25.36813 0.37693,0.98227 6.58465,0.83596 20.36528,-0.47996 13.08137,-1.24915 38.18809,-1.92953 73.82306,-2.00059 z"
         id="path2015"
         transform="translate(-53.530501,-86.823942)" />
      <path
         style="fill:#ffffff;stroke-width:1.33333"
         d="m 439.33332,251.89782 c 30.30565,-7.57716 61.76825,-13.77455 91.93063,-18.10812 l 26.06937,-3.74552 v -25.78471 -25.78469 l -7,0.78363 c -3.85,0.431 -15.4,1.69858 -25.66667,2.81685 -28.25426,3.07752 -62.11125,8.08527 -94.41553,13.96489 -15.99521,2.91124 -29.34521,5.29318 -29.66666,5.29318 -0.32146,0 -0.58447,13.75765 -0.58447,30.57256 v 30.57254 l 9,-2.62337 c 4.95,-1.44286 18.6,-5.02361 30.33333,-7.95724 z"
         id="path2013"
         transform="translate(-53.530501,-86.823942)" />
      <path
         style="fill:#ffffff;stroke-width:1.33333"
         d="m 933.33331,233.22605 c 0,-29.10406 -0.0184,-29.29096 -3,-30.54835 -10.8818,-4.58893 -130.51181,-22.67771 -149.97888,-22.67771 h -5.68778 v 25.33334 c 0,13.93333 0.26709,25.33333 0.59353,25.33333 0.32644,0 8.87644,1.21533 19,2.70075 39.26791,5.76169 81.32416,14.5675 116.40646,24.37339 11.36667,3.17712 21.11667,5.54975 21.66667,5.27252 0.55,-0.27722 1,-13.68149 1,-29.78727 z"
         id="path2011"
         transform="translate(-53.530501,-86.823942)" />
      <path
         style="fill:#ffffff;stroke-width:1.33333"
         d="m 161.46157,280.68451 c 33.29613,-6.22352 61.88842,-11.63495 63.53842,-12.02541 2.56323,-0.60655 3,-1.58623 3,-6.72884 0,-11.9806 9.38002,-24.8578 25.23576,-34.64452 7.11848,-4.39379 7.94219,-5.28437 5.66622,-6.12631 -1.46471,-0.54182 -27.49791,-7.91894 -57.85155,-16.3936 l -55.18842,-15.40845 -11.26434,4.72633 c -6.19538,2.59948 -19.15463,8.56295 -28.79833,13.25214 -19.757362,9.60689 -29.214097,17.55129 -33.145105,27.84449 l -2.290808,5.99839 5.498005,11.35886 c 4.549239,9.39872 23.348255,39.4624 24.676098,39.4624 0.21209,0 27.62792,-5.09197 60.92405,-11.31548 z"
         id="path2009"
         transform="translate(-53.530501,-86.823942)" />
      <path
         style="fill:#ffffff;stroke-width:1.33333"
         d="m 1238.116,277.06246 c 7.701,-11.46048 19.1585,-33.0216 19.1917,-36.11559 0.047,-4.36806 -4.9756,-12.27129 -11.9355,-18.78144 -5.1261,-4.79493 -12.7214,-9.25237 -29.7928,-17.48462 -12.602,-6.07696 -25.0128,-11.77007 -27.5794,-12.65135 -4.3124,-1.48065 -8.7161,-0.47515 -58,13.24325 -29.3334,8.16507 -55.3478,15.48675 -57.8098,16.27042 l -4.4765,1.42482 7.8098,4.9424 c 14.9764,9.47776 24.4765,23.50867 24.4765,36.15012 v 4.91879 l 23,4.35585 c 12.65,2.39571 41,7.81288 63,12.03815 l 40,7.68229 3.0551,-3.52777 c 1.6804,-1.94028 5.7578,-7.54968 9.0609,-12.46532 z"
         id="path2007"
         transform="translate(-53.530501,-86.823942)" />
      <path
         style="fill:#ffffff;stroke-width:1.33333"
         d="m 319.99999,289.31811 c 12.1,-4.58557 32.5,-11.79493 45.33333,-16.02081 l 23.33334,-7.68342 0.3579,-30.80694 c 0.19686,-16.94383 0.10512,-30.80695 -0.20384,-30.80695 -1.65022,0 -46.50338,10.28155 -70.48739,16.1576 l -27.66667,6.77831 v 37.23294 37.23296 l 3.66667,-1.87314 c 2.01666,-1.03023 13.56666,-5.62498 25.66666,-10.21055 z"
         id="path2005"
         transform="translate(-53.530501,-86.823942)" />
      <path
         style="fill:#ffffff;stroke-width:1.33333"
         d="m 1070.9582,290.79586 c 17.2414,-15.44334 18.8818,-33.15744 4.1919,-45.26608 -4.5299,-3.73393 -19.1032,-12.19645 -21.0034,-12.19645 -0.4474,0 -0.8134,15.63838 -0.8134,34.75197 v 34.75198 l 5.5353,-3.08532 c 3.0444,-1.69692 8.4848,-5.72716 12.0896,-8.9561 z"
         id="path2003"
         transform="translate(-53.530501,-86.823942)" />
      <path
         style="fill:#ffffff;stroke-width:1.33333"
         d="m 1042.6666,265.96699 v -36.69966 l -3.4573,-1.31448 c -6.626,-2.51922 -90.53832,-22.61952 -94.42919,-22.61952 -0.42908,0 -0.78013,14.02202 -0.78013,31.16005 v 31.16005 l 6.33333,1.72537 c 10.01135,2.72736 49.82129,16.98364 70.99999,25.42568 10.6333,4.23856 19.7833,7.74151 20.3333,7.78432 0.55,0.0428 1,-16.437 1,-36.62181 z"
         id="path2001"
         transform="translate(-53.530501,-86.823942)" />
      <path
         style="fill:#ffffff;stroke-width:1.33333"
         d="m 279.99999,267.99999 c 0,-20.53333 -0.337,-37.33333 -0.74889,-37.33333 -3.57169,0 -22.55781,11.23788 -28.13157,16.65108 -13.4634,13.07556 -12.29003,25.99789 3.77465,41.57033 6.30791,6.11463 21.43548,16.43267 24.10581,16.44183 0.55,0.002 1,-16.79658 1,-37.32991 z"
         id="path1999"
         transform="translate(-53.530501,-86.823942)" />
      <path
         style="fill:#ffffff;stroke-width:1.33333"
         d="m 1134.8609,368.91659 c 22.0849,-12.88827 40.0376,-25.51695 56.4074,-39.67943 17.6288,-15.25161 26.9464,-24.93261 25.34,-26.32813 -1.0585,-0.91952 -115.3236,-23.11432 -118.1994,-22.95897 -0.5085,0.0275 -2.4064,2.53513 -4.2178,5.5726 -8.8755,14.88362 -26.3028,27.7507 -51.3264,37.89572 -8.9089,3.61184 -16.1975,6.87026 -16.1968,7.24096 0,0.64352 89.199,47.75231 90.7422,47.92441 0.4089,0.0456 8.2617,-4.30463 17.4508,-9.66716 z"
         id="path1997"
         transform="translate(-53.530501,-86.823942)" />
      <path
         style="fill:#ffffff;stroke-width:1.33333"
         d="m 262.30335,356.66666 c 23.58211,-13.2 42.46108,-24.40388 41.95327,-24.89751 -0.50781,-0.49363 -7.22329,-3.41976 -14.92329,-6.50252 -18.74463,-7.50457 -27.0724,-11.80408 -36.92063,-19.06161 -8.76613,-6.4601 -17.48557,-16.47163 -20.33311,-23.3462 -1.3444,-3.24567 -2.3526,-4.02087 -4.56898,-3.51312 -1.56418,0.35832 -28.57386,5.43204 -60.02152,11.27492 -31.44767,5.84288 -57.5128,10.95862 -57.9225,11.36834 -1.27023,1.27022 26.54206,27.47399 40.50518,38.16258 22.42116,17.16309 62.75092,41.64959 67.30829,40.86671 1.12571,-0.19338 21.34119,-11.1516 44.92329,-24.35159 z"
         id="path1995"
         transform="translate(-53.530501,-86.823942)" />
      <path
         style="fill:#ffffff;stroke-width:1.33333"
         d="m 924.31271,442.58081 c 61.16541,-12.2783 126.62509,-32.53341 169.25909,-52.37357 l 11.906,-5.54059 -46.699,-24.37096 -46.699,-24.37094 -23.70659,8.60536 c -29.33479,10.64839 -63.92481,21.20484 -96.76438,29.53133 -15.64577,3.967 -24.91089,6.92793 -24.66667,7.88293 0.4353,1.70214 36.15284,64.72228 36.68226,64.72228 0.1839,0 9.49364,-1.83862 20.68829,-4.08584 z"
         id="path1993"
         transform="translate(-53.530501,-86.823942)" />
      <path
         style="fill:#ffffff;stroke-width:1.33333"
         d="m 445.40564,419.66665 c 8.23323,-14.85 16.40181,-29.48126 18.15244,-32.51393 l 3.18295,-5.51392 -9.70385,-2.32755 C 415.72571,369.40236 377.7037,358.20392 341.18519,345.18994 l -22.14814,-7.89287 -44.75699,25.01812 c -24.61635,13.75997 -44.34968,25.38956 -43.85187,25.84352 1.85679,1.6932 36.22198,15.75088 54.23847,22.18718 36.20419,12.93379 75.09997,23.3059 128,34.133 18.52129,3.79078 15.69182,5.93518 32.73898,-24.81224 z"
         id="path1991"
         transform="translate(-53.530501,-86.823942)" />
      <path
         style="fill:#ffffff;stroke-width:1.33333"
         d="m 767.99998,463.42922 c 35.60415,-2.77989 62.24201,-5.67758 93.33333,-10.15286 15.03333,-2.16391 27.78333,-3.93632 28.33333,-3.93871 2.30691,-0.009 0.1276,-4.44421 -17.12325,-34.83972 -14.0836,-24.81496 -18.61588,-31.78637 -20.33333,-31.27608 -5.72605,1.70132 -40.574,7.77594 -61.54341,10.7281 -30.51315,4.29577 -63.87806,7.17757 -95.66667,8.26293 l -25.66666,0.87633 v 31.99984 31.99984 l 37,-0.86687 c 20.34999,-0.47678 48.09999,-1.73354 61.66666,-2.7928 z"
         id="path1989"
         transform="translate(-53.530501,-86.823942)" />
      <path
         style="fill:#ffffff;stroke-width:1.33333"
         d="m 658.66665,434.87724 v -31.7894 l -26.33333,-0.88313 c -45.64273,-1.5307 -85.54443,-5.85231 -132.18373,-14.31634 -12.01771,-2.18096 -22.12066,-3.69512 -22.45096,-3.3648 -0.33032,0.33032 -8.57919,14.89764 -18.3308,32.37183 -11.46891,20.55141 -17.19539,32.07245 -16.21571,32.62415 1.80836,1.01834 44.86803,6.97085 70.1812,9.70174 42.36104,4.57007 81.73346,6.96807 119,7.24773 l 26.33333,0.19763 z"
         id="path1987"
         transform="translate(-53.530501,-86.823942)" />
      <path
         style="fill:#e6e6e6;stroke-width:1.33333"
         d="m 1179.0529,549.44593 c 31.2644,-14.07039 46.4668,-21.89785 64.5589,-33.2404 l 16.2786,-10.20555 0.055,-117.99999 0.055,-118 -6.781,10.58341 c -3.7295,5.82088 -9.5595,14.22088 -12.9556,18.66667 -9.5565,12.51055 -32.856,35.91868 -47.5964,47.81825 -14.6477,11.82488 -43.2027,30.96108 -57.0988,38.265 l -8.8787,4.66667 -0.011,90.92825 -0.011,90.92825 15.6667,-6.46792 c 8.6166,-3.55735 25.1405,-10.73153 36.7196,-15.94264 z"
         id="path1985"
         transform="translate(-53.530501,-86.823942)" />
      <path
         style="fill:#e6e6e6;stroke-width:1.33333"
         d="m 206.34265,483.11956 -0.34266,-90.21376 -17.19465,-9.87696 c -34.69257,-19.92812 -53.25422,-33.96209 -78.91556,-59.666 -14.965622,-14.99045 -21.157613,-22.39265 -30.505985,-36.46834 -6.451006,-9.71318 -11.837362,-17.488 -11.969679,-17.27742 -0.13232,0.2106 0.012,53.52204 0.320608,118.46985 l 0.561185,118.08696 10.185377,6.51305 c 19.918949,12.73723 26.433344,16.35359 46.852044,26.0092 24.37533,11.52663 77.272,34.47901 79.67598,34.5722 1.33312,0.0517 1.6059,-18.39012 1.33334,-90.14878 z"
         id="path1983"
         transform="translate(-53.530501,-86.823942)" />
      <path
         style="fill:#e6e6e6;stroke-width:1.33333"
         d="M 925.85471,634.05935 C 978.42702,622.69287 1049.0192,601.67798 1100,582.21731 l 15.3333,-5.85313 0.3427,-90.18209 c 0.1884,-49.60016 0.021,-90.1821 -0.3714,-90.1821 -0.3927,0 -4.2168,1.7682 -8.498,3.92934 -39.536,19.95772 -109.95993,42.42484 -175.47329,55.98071 l -24,4.96601 -0.34285,88.22864 c -0.3043,78.30714 -0.11434,88.22862 1.68932,88.22862 1.11768,0 8.8464,-1.47328 17.17493,-3.27396 z"
         id="path1981"
         transform="translate(-53.530501,-86.823942)" />
      <path
         style="fill:#e6e6e6;stroke-width:1.33333"
         d="m 425.33332,550.18696 v -88.47968 l -15,-2.93205 c -68.8039,-13.44906 -134.12515,-33.36904 -182.18777,-55.55891 -5.41994,-2.50232 -10.06994,-4.54967 -10.33333,-4.54967 -0.26339,0 -0.47889,40.43967 -0.47889,89.86593 v 89.86593 l 17,6.26215 c 47.0976,17.34896 92.71788,31.31221 138.99999,42.54451 37.10484,9.00505 46.68651,11.19348 49.66667,11.3438 2.19996,0.11093 2.33333,-4.9397 2.33333,-88.36201 z"
         id="path1979"
         transform="translate(-53.530501,-86.823942)" />
      <path
         style="fill:#e6e6e6;stroke-width:1.33333"
         d="m 754.89043,659.29462 c 47.0213,-3.65321 121.88139,-13.78589 138.77621,-18.78405 2.19192,-0.64846 2.33334,-6.06514 2.33334,-89.37304 v -88.68276 l -3.66667,0.75557 c -41.58326,8.56886 -148.46118,18.0903 -203.33333,18.11435 l -19.66666,0.009 v 90.8779 90.87791 l 29.89045,-0.89594 c 16.43975,-0.49277 41.48974,-1.79713 55.66666,-2.89857 z"
         id="path1977"
         transform="translate(-53.530501,-86.823942)" />
      <path
         style="fill:#e6e6e6;stroke-width:1.33333"
         d="m 658.66665,571.99998 v -90.66666 l -19.66667,-0.008 c -48.12693,-0.0211 -118.97303,-5.62735 -177.22813,-14.02454 -12.59213,-1.81572 -23.24213,-3.3008 -23.66666,-3.3008 -0.42452,0 -0.77187,39.85747 -0.77187,88.57214 v 88.57213 l 7,1.4111 c 53.09175,10.70259 137.46504,19.30331 195.33333,19.91158 l 19,0.19972 z"
         id="path1975"
         transform="translate(-53.530501,-86.823942)" />
      <path
         style="fill:#b3b3b3;stroke-width:1.33333"
         d="m 1061.5104,744.09619 c 33.3607,-11.34755 61.2156,-22.00092 91.8951,-35.14612 26.5704,-11.38463 66.4292,-29.82995 68.9278,-31.89748 1.2919,-1.06897 1.6667,-16.05554 1.6667,-66.63905 v -65.25993 l -3,0.9304 c -1.65,0.51172 -6.3711,2.62093 -10.4912,4.68712 -20.6817,10.37157 -73.9023,33.20076 -102.7677,44.08258 -6.0909,2.2962 -25.4745,9.12494 -43.0745,15.17498 l -32,11.00006 -0.3457,66.15228 c -0.1994,38.13975 0.1579,66.15228 0.8437,66.15228 0.6543,0 13.4099,-4.15671 28.3458,-9.23712 z"
         id="path1973"
         transform="translate(-53.530501,-86.823942)" />
      <path
         style="fill:#b3b3b3;stroke-width:1.33333"
         d="m 295.67911,687.13434 -0.34578,-66.19897 -26.66667,-8.97174 c -48.90776,-16.45449 -90.78948,-33.04448 -135.82845,-53.80371 -15.30564,-7.05463 -28.05564,-12.8266 -28.33333,-12.8266 -0.27769,0 -0.50488,29.58886 -0.50488,65.75305 v 65.75305 l 5,2.43796 c 32.17134,15.68657 76.64877,35.07145 110.33333,48.08729 21.25929,8.21467 72.198,25.80857 75.01245,25.90883 1.33265,0.0475 1.60776,-13.5991 1.33333,-66.13916 z"
         id="path1971"
         transform="translate(-53.530501,-86.823942)" />
      <path
         style="fill:#b3b3b3;stroke-width:1.33333"
         d="M 849.33331,796.57239 C 895.15026,789.55921 958.11139,775.69283 1002,762.94951 l 17.3333,-5.03284 0.3459,-66.44952 0.3459,-66.4495 -3.0126,0.67058 c -1.6569,0.36882 -15.3125,4.05316 -30.34586,8.18744 -31.06694,8.54364 -70.4275,17.5065 -102.66666,23.3784 -25.70922,4.68256 -76.07157,12.06864 -82.33333,12.07491 l -4.33334,0.004 v 67.10837 67.10836 l 15,-1.80505 c 8.25,-0.99279 24.9,-3.32046 37,-5.1726 z"
         id="path1969"
         transform="translate(-53.530501,-86.823942)" />
      <path
         style="fill:#b3b3b3;stroke-width:1.33333"
         d="m 530.34603,735.93562 -0.34604,-65.9056 -14,-1.69263 c -58.67877,-7.09438 -136.33428,-22.84996 -191.99718,-38.9544 -7.69846,-2.22732 -14.75406,-4.04968 -15.67912,-4.04968 -1.33575,0 -1.61075,13.63528 -1.33615,66.2482 l 0.34579,66.24819 27.33333,7.60142 c 41.78925,11.62163 86.28345,21.57952 127.99999,28.64669 29.15742,4.93954 65.81283,9.66118 67.01271,8.63202 0.557,-0.47774 0.857,-30.52614 0.66667,-66.77421 z"
         id="path1967"
         transform="translate(-53.530501,-86.823942)" />
      <path
         style="fill:#b3b3b3;stroke-width:1.33333"
         d="m 757.99998,807.40001 c 13.93333,-1.17812 26.08895,-2.40841 27.01247,-2.73397 1.32585,-0.4674 1.60638,-14.55608 1.33333,-66.96233 -0.34119,-65.48585 -0.38133,-66.36619 -3.01247,-66.05421 -1.46666,0.1739 -14.96666,1.23874 -30,2.36632 -58.79454,4.40984 -135.51573,3.955 -193.66666,-1.14818 l -18.33333,-1.60888 v 66.84975 66.84976 l 21,1.70241 c 41.38372,3.35488 55.13533,3.76188 112.33333,3.32468 38.13593,-0.29148 66.67625,-1.17693 83.33333,-2.58535 z"
         id="path1965"
         transform="translate(-53.530501,-86.823942)" />
      <path
         style="fill:#666666;stroke-width:1.33333"
         d="m 1125.5329,870.62824 c 14.1902,-6.62112 42.0004,-20.317 61.8004,-30.43531 l 36,-18.39692 0.3458,-66.23134 c 0.1902,-36.42725 0.1494,-66.23136 -0.091,-66.23136 -0.24,0 -10.8956,4.85579 -23.6791,10.79064 -27.1471,12.60324 -58.4273,25.93835 -84.2428,35.91357 l -18.3333,7.0841 v 69.77251 c 0,40.4396 0.5043,69.77251 1.1996,69.77251 0.6598,0 12.8098,-5.41728 27,-12.0384 z"
         id="path1963"
         transform="translate(-53.530501,-86.823942)" />
      <path
         style="fill:#666666;stroke-width:1.33333"
         d="m 230.66666,812.90665 v -69.75997 l -17,-6.4163 c -22.62236,-8.53836 -67.7854,-27.84492 -90.4521,-38.66699 -10.05678,-4.80155 -18.49419,-8.73008 -18.74981,-8.73008 -0.25561,0 -0.46475,29.65797 -0.46475,65.9066 v 65.90661 l 9.66666,5.27379 c 31.27152,17.06064 111.18784,55.98213 115.33333,56.17057 1.31307,0.0597 1.66667,-14.72472 1.66667,-69.68423 z"
         id="path1961"
         transform="translate(-53.530501,-86.823942)" />
      <path
         style="fill:#666666;stroke-width:1.33333"
         d="m 924.74864,945.96021 c 51.78202,-14.71677 111.21386,-35.76639 155.58466,-55.10513 l 6.3333,-2.76035 v -70.04737 c 0,-38.52607 -0.5055,-70.04738 -1.1233,-70.04738 -1.2076,0 -52.4427,16.76046 -56.8767,18.60596 -10.75,4.47435 -120.80793,32.0607 -127.9087,32.0607 -0.41686,0 -0.75792,34.5 -0.75792,76.66666 0,62.36194 0.32626,76.66667 1.74866,76.66667 0.96178,0 11.31178,-2.71789 23,-6.03976 z"
         id="path1959"
         transform="translate(-53.530501,-86.823942)" />
      <path
         style="fill:#666666;stroke-width:1.33333"
         d="m 427.99999,875.42784 v -76.57213 l -7.66667,-1.53451 c -46.60601,-9.32829 -100.14959,-23.67664 -147.55681,-39.54154 -16.07292,-5.37883 -29.72822,-9.77968 -30.34513,-9.77968 -0.61689,0 -0.96632,31.63434 -0.77651,70.29855 l 0.34512,70.29855 14.66667,6.18409 c 22.34705,9.42245 57.38072,22.70223 84.02218,31.84921 24.57712,8.43822 80.79667,25.17644 84.97782,25.3004 2.19593,0.0651 2.33333,-4.43964 2.33333,-76.50294 z"
         id="path1957"
         transform="translate(-53.530501,-86.823942)" />
      <path
         style="fill:#666666;stroke-width:1.33333"
         d="m 744.46463,979.28822 c 41.16775,-3.69155 107.6301,-14.50368 137.53535,-22.37432 l 6.66666,-1.75457 0.34416,-76.91301 c 0.20938,-46.78805 -0.14164,-76.91301 -0.89616,-76.91301 -0.68217,0 -11.93705,1.7832 -25.01082,3.96268 -57.53291,9.59104 -127.31441,16.01638 -174.10384,16.03112 l -19.66666,0.006 v 80.87794 80.87794 l 26.13132,-0.87516 c 14.37222,-0.48134 36.42222,-1.79796 48.99999,-2.92581 z"
         id="path1955"
         transform="translate(-53.530501,-86.823942)" />
      <path
         style="fill:#666666;stroke-width:1.33333"
         d="m 658.34373,902.3333 -0.34375,-80.33333 -30,-0.85553 c -57.34089,-1.63523 -128.96546,-8.92028 -175.99999,-17.90124 -5.5,-1.05019 -10.75,-1.90953 -11.66667,-1.90967 -1.31413,-1.7e-4 -1.66666,16.31839 -1.66666,77.14904 v 77.14927 l 7,1.47792 c 3.85,0.81285 15.69999,3.32249 26.33333,5.57696 54.36917,11.52727 120.43114,19.26207 169.01041,19.78839 l 17.67706,0.19152 z"
         id="path1953"
         transform="translate(-53.530501,-86.823942)" />
    </g>
  </g>
</svg>
