<svg xmlns="http://www.w3.org/2000/svg" viewBox="0 0 64 64" id="water-tank"><g data-name="water tank-farm"><rect width="28" height="4" x="18" y="12" fill="#787680"></rect><polygon fill="#ffda44" points="48 12 16 12 32 3 48 12"></polygon><polygon fill="#57565c" points="46 36 46 40 43 40 21 40 18 40 18 36 46 36"></polygon><rect width="28" height="20" x="18" y="16" fill="#e0e0e2"></rect><path fill="#5aaae7" d="M32,32a5,5,0,0,1-5-5c0-2.76,5-8,5-8s5,5.24,5,8A5,5,0,0,1,32,32Z"></path><rect width="2" height="22" x="20" y="40" fill="#57565c"></rect><rect width="2" height="22" x="42" y="40" fill="#57565c"></rect><rect width="2" height="27.203" x="31" y="36.399" fill="#57565c" transform="rotate(-53.973 32 50)"></rect><rect width="27.203" height="2" x="18.399" y="49" fill="#57565c" transform="rotate(-36.042 32 50)"></rect><rect width="33" height="2" x="15" y="39" fill="#3e3d42"></rect><path fill="#fff" d="M32,30a3,3,0,0,1-3-3,1,1,0,0,1,2,0,1,1,0,0,0,1,1,1,1,0,0,1,0,2Z"></path><rect width="28" height="1" x="18" y="12" fill="#57565c"></rect><rect width="2" height="4" x="20" y="17" fill="#fff" rx="1"></rect><rect width="2" height="2" x="20" y="22" fill="#fff" rx="1"></rect></g></svg>